<?xml version="1.0" encoding="UTF-8" standalone="no"?>
<!-- Created with Inkscape (http://www.inkscape.org/) -->

<svg
   width="188.28125"
   height="153.41797"
   viewBox="0 0 188.28124 153.41797"
   version="1.1"
   id="svg1"
   inkscape:version="1.4 (86a8ad7, 2024-10-11)"
   sodipodi:docname="fleuron_NE_turned_LEAF.svg"
   xmlns:inkscape="http://www.inkscape.org/namespaces/inkscape"
   xmlns:sodipodi="http://sodipodi.sourceforge.net/DTD/sodipodi-0.dtd"
   xmlns="http://www.w3.org/2000/svg"
   xmlns:svg="http://www.w3.org/2000/svg">
  <path
     d="m 124.4774,259.00476 q 17.38281,-11.13281 30.46875,-20.3125 13.1836,-9.27734 23.14453,-16.99219 9.96094,-7.71484 17.28516,-13.96484 7.42187,-6.34766 13.18359,-11.52344 -0.48828,-1.85547 -1.36718,-4.10156 -0.87891,-2.24609 -1.75782,-4.78516 -0.8789,-2.53906 -1.5625,-5.37109 -0.68359,-2.83203 -0.68359,-6.05469 0,-3.02734 0.97656,-6.15234 0.97656,-3.22266 3.02735,-5.76172 2.14843,-2.63672 5.37109,-4.19922 3.32031,-1.66016 7.8125,-1.66016 3.80859,0 6.73828,1.5625 3.02734,1.46485 5.07813,4.00391 2.05078,2.53906 3.02734,6.05469 1.07422,3.41797 1.07422,7.22656 0,4.78516 -1.95313,9.08203 -1.95312,4.29688 -4.29687,7.51953 -2.73438,3.8086 -6.25,7.03125 2.53906,6.83594 4.58984,14.35547 0.87891,3.22266 1.66016,6.9336 0.78125,3.71093 1.46484,7.8125 0.6836,4.0039 1.07422,8.30078 0.39063,4.29687 0.39063,8.59375 0,7.51953 -1.36719,15.23437 -1.26953,7.71485 -4.29688,14.94141 -3.02734,7.22656 -7.8125,13.57422 -4.6875,6.34765 -11.52343,11.03515 -6.83594,4.6875 -15.91797,7.42188 -9.08203,2.73437 -20.60547,2.73437 -7.22656,0 -13.37891,-1.5625 -6.05469,-1.5625 -11.23047,-4.10156 -5.17578,-2.53906 -9.375,-5.76172 -4.19922,-3.22265 -7.51953,-6.64062 -3.22265,-3.41797 -5.5664,-6.64063 -2.34375,-3.22265 -3.90625,-5.66406 -12.20704,7.22656 -23.437505,12.79297 -11.132812,5.66406 -19.921875,9.57031 -10.253906,4.58984 -19.238281,8.00781 l -9.863281,-17.77343 q 13.085937,-4.49219 26.367187,-9.86329 5.664063,-2.34375 11.914063,-5.07812 6.347656,-2.73438 12.792969,-5.85938 6.542973,-3.22265 12.988283,-6.64062 6.44531,-3.51563 12.40234,-7.32422 z m 46.67969,36.03516 q 8.00781,0 14.64844,-2.05078 6.64062,-2.05079 11.91406,-5.66407 5.27344,-3.51562 9.17969,-8.30078 3.90625,-4.6875 6.44531,-9.96094 2.53906,-5.37109 3.80859,-11.03515 1.26953,-5.76172 1.26953,-11.13281 0,-7.12891 -0.78125,-13.96485 -0.78125,-6.83594 -1.66015,-12.30469 -1.07422,-6.34765 -2.34375,-12.01171 -10.44922,9.96093 -22.85156,20.50781 -5.27344,4.49219 -11.52344,9.66797 -6.15235,5.07812 -13.08594,10.44922 -6.83594,5.37109 -14.35547,10.9375 -7.42187,5.46875 -15.23437,10.74218 -1.36719,0.97657 -2.83203,1.95313 -1.46485,0.8789 -2.83204,1.75781 2.05079,2.92969 5.46875,6.44531 3.41797,3.61328 8.30079,6.64063 4.98046,3.125 11.52343,5.17578 6.54297,2.14844 14.94141,2.14844 z M 87.27037,205.39148 q 0,-9.47266 3.320313,-16.89453 3.320312,-7.42188 9.179687,-12.5 5.85938,-5.17578 13.86719,-7.8125 8.10547,-2.73438 17.57812,-2.73438 7.12891,0 13.67188,1.07422 6.64062,0.97656 12.59765,2.73438 5.95704,1.66015 11.13282,3.80859 5.27343,2.14844 9.66797,4.39453 10.2539,5.3711 18.55468,12.01172 l -9.57031,7.51953 q -6.93359,-4.19922 -15.625,-7.51953 -7.42187,-2.83203 -17.57812,-5.17578 -10.15625,-2.34375 -22.5586,-2.34375 -7.32422,0 -12.79297,2.24609 -5.37109,2.14844 -8.88672,5.66407 -3.51562,3.41796 -5.27343,7.61718 -1.75782,4.19922 -1.75782,8.20313 0,3.51562 1.17188,6.83594 1.26953,3.32031 3.22266,6.25 1.95312,2.92968 4.49218,5.5664 2.63672,2.53906 5.27344,4.6875 6.25,5.07813 14.25781,9.17969 l -13.76953,9.86328 q -8.49609,-4.6875 -15.13672,-11.03516 -2.832028,-2.73437 -5.566403,-6.05468 -2.636719,-3.32032 -4.785157,-7.22657 -2.148437,-4.0039 -3.417968,-8.59375 -1.269532,-4.58984 -1.269532,-9.76562 z"
     id="text1"
     style="font-size:200px;line-height:1;font-family:'Wingdings 2';-inkscape-font-specification:'Wingdings 2, ';text-align:center;letter-spacing:-14px;word-spacing:0px;text-anchor:middle;fill:#800000;fill-opacity:1"
     transform="translate(-48.012558,-158.12585)"
     aria-label="🙖" />
  <sodipodi:namedview
     id="namedview1"
     pagecolor="#505050"
     bordercolor="#eeeeee"
     borderopacity="1"
     inkscape:showpageshadow="0"
     inkscape:pageopacity="0"
     inkscape:pagecheckerboard="0"
     inkscape:deskcolor="#505050"
     inkscape:document-units="px"
     inkscape:zoom="1.2609375"
     inkscape:cx="132.83767"
     inkscape:cy="162.18092"
     inkscape:window-width="1920"
     inkscape:window-height="1009"
     inkscape:window-x="-8"
     inkscape:window-y="201"
     inkscape:window-maximized="1"
     inkscape:current-layer="svg1" />
  <defs
     id="defs1" />
</svg>
