<?xml version="1.0" encoding="UTF-8" standalone="no"?>
<!-- Created with Inkscape (http://www.inkscape.org/) -->

<svg
   width="189.16016"
   height="106.05469"
   viewBox="0 0 189.16015 106.05469"
   version="1.1"
   id="svg1"
   inkscape:version="1.4 (86a8ad7, 2024-10-11)"
   sodipodi:docname="fleuron_HEAVY_SE_VINE.svg"
   xmlns:inkscape="http://www.inkscape.org/namespaces/inkscape"
   xmlns:sodipodi="http://sodipodi.sourceforge.net/DTD/sodipodi-0.dtd"
   xmlns="http://www.w3.org/2000/svg"
   xmlns:svg="http://www.w3.org/2000/svg">
  <sodipodi:namedview
     id="namedview1"
     pagecolor="#505050"
     bordercolor="#eeeeee"
     borderopacity="1"
     inkscape:showpageshadow="0"
     inkscape:pageopacity="0"
     inkscape:pagecheckerboard="0"
     inkscape:deskcolor="#505050"
     inkscape:document-units="px"
     inkscape:zoom="1.2609375"
     inkscape:cx="132.04461"
     inkscape:cy="149.49195"
     inkscape:window-width="1920"
     inkscape:window-height="1009"
     inkscape:window-x="-8"
     inkscape:window-y="201"
     inkscape:window-maximized="1"
     inkscape:current-layer="svg1" />
  <defs
     id="defs1" />
  <path
     d="m 92.055527,243.47742 q -12.890625,5.5664 -22.753907,5.5664 -9.179687,0 -15.527343,-6.05468 -6.347657,-6.05469 -6.347657,-14.7461 0,-10.44922 7.519532,-17.38281 7.519531,-6.93359 18.847656,-6.93359 16.796875,0 36.425782,18.84765 8.98437,-6.44531 20.3125,-18.16406 l 4.88281,-5.07813 q 27.83203,-28.80859 48.82813,-28.80859 9.17968,0 13.76953,3.22266 4.6875,3.22265 4.6875,9.66797 0,12.69531 -18.84766,15.33203 1.46485,-3.125 1.46485,-4.98047 0,-3.8086 -2.34375,-5.66406 -2.2461,-1.85547 -6.73829,-1.85547 -12.5,0 -34.08203,20.60547 l -4.98047,4.78515 q 19.53125,-7.03125 37.59766,-7.03125 25,0 43.35938,12.30469 18.45703,12.30469 18.45703,29.10156 0,10.64453 -9.86328,16.89453 -9.86329,6.25 -26.5625,6.25 5.17578,-6.15234 5.17578,-15.42968 0,-15.72266 -12.89063,-26.07422 -12.79297,-10.35157 -32.22656,-10.35157 -18.55469,0 -42.67578,11.81641 l 7.03125,7.22656 q 24.70703,25.29297 34.27734,25.29297 4.39453,0 6.64063,-2.05078 2.24609,-2.14844 2.24609,-6.25 0,-4.6875 -4.58984,-8.10547 -4.49219,-3.41797 -10.74219,-3.41797 -3.02734,0 -7.22656,1.46485 6.93359,-14.84375 17.57812,-14.84375 7.12891,0 12.30469,5.5664 5.27344,5.46875 5.27344,12.89063 0,12.40234 -9.76563,21.09375 -9.76562,8.59375 -23.73047,8.59375 -22.36328,0 -48.339841,-26.66016 z m -7.617188,-7.61719 q -11.523437,-10.54688 -16.601562,-10.54688 -3.222657,0 -4.882813,1.46485 -1.5625,1.36719 -1.5625,4.19922 0,3.80859 2.539063,5.76172 2.539062,1.85546 7.714843,1.85546 5.859375,0 12.792969,-2.73437 z"
     id="text1"
     style="font-size:200px;line-height:1;font-family:'Wingdings 2';-inkscape-font-specification:'Wingdings 2, ';text-align:center;letter-spacing:-14px;word-spacing:0px;text-anchor:middle;fill:#040c04"
     aria-label="🙜"
     transform="translate(-47.42662,-170.72351)" />
</svg>
