<?xml version="1.0" encoding="UTF-8" standalone="no"?>
<!-- Created with Inkscape (http://www.inkscape.org/) -->

<svg
   width="189.16016"
   height="106.05469"
   viewBox="0 0 189.16015 106.05469"
   version="1.1"
   id="svg1"
   inkscape:version="1.4 (86a8ad7, 2024-10-11)"
   sodipodi:docname="fleuron_HEAVY_NW_VINE.svg"
   xmlns:inkscape="http://www.inkscape.org/namespaces/inkscape"
   xmlns:sodipodi="http://sodipodi.sourceforge.net/DTD/sodipodi-0.dtd"
   xmlns="http://www.w3.org/2000/svg"
   xmlns:svg="http://www.w3.org/2000/svg">
  <sodipodi:namedview
     id="namedview1"
     pagecolor="#505050"
     bordercolor="#eeeeee"
     borderopacity="1"
     inkscape:showpageshadow="0"
     inkscape:pageopacity="0"
     inkscape:pagecheckerboard="0"
     inkscape:deskcolor="#505050"
     inkscape:document-units="px"
     inkscape:zoom="1.2609375"
     inkscape:cx="132.04461"
     inkscape:cy="149.49195"
     inkscape:window-width="1920"
     inkscape:window-height="1009"
     inkscape:window-x="-8"
     inkscape:window-y="201"
     inkscape:window-maximized="1"
     inkscape:current-layer="svg1" />
  <defs
     id="defs1" />
  <path
     d="m 191.95787,204.02429 q 12.89063,-5.5664 22.75391,-5.5664 9.17968,0 15.52734,6.05468 6.34766,6.05469 6.34766,14.84375 0,10.44922 -7.51953,17.38282 -7.51954,6.83593 -18.84766,6.83593 -16.79688,0 -36.32813,-18.84765 -9.08203,6.44531 -20.41015,18.16406 l -4.88281,5.07812 q -27.83204,28.8086 -48.82813,28.8086 -9.277343,0 -13.867187,-3.22266 -4.589844,-3.22265 -4.589844,-9.57031 0,-12.79297 18.945311,-15.33203 -1.562498,3.125 -1.562498,4.88281 0,3.80859 2.246098,5.76172 2.24609,1.85547 6.83593,1.85547 12.59766,0 34.08203,-20.60547 l 4.98047,-4.88281 q -19.33593,7.03125 -37.5,7.03125 -25.097653,0 -43.554685,-12.30469 -18.359375,-12.30469 -18.359375,-29.00391 0,-10.64453 9.863282,-16.89453 9.863281,-6.34765 26.5625,-6.34765 -5.175782,6.25 -5.175782,15.52734 0,15.625 12.792969,25.97656 12.890621,10.35156 32.324221,10.35156 18.55469,0 42.67578,-11.8164 l -7.03125,-7.22656 q -24.70703,-25.29297 -34.27734,-25.29297 -4.49219,0 -6.73829,2.05078 -2.14843,2.05078 -2.14843,6.25 0,4.78515 4.49218,8.20312 4.58985,3.41797 10.83985,3.41797 3.02734,0 7.22656,-1.5625 -6.83594,14.84375 -17.57812,14.84375 -7.12891,0 -12.40235,-5.46875 -5.17578,-5.46875 -5.17578,-12.98828 0,-12.30469 9.76563,-20.99609 9.86328,-8.69141 23.73046,-8.69141 22.46094,0 48.33985,26.66016 z m 7.61719,7.61719 q 11.52344,10.54687 16.60156,10.54687 3.22266,0 4.78516,-1.36718 1.66015,-1.46485 1.66015,-4.19922 0,-3.90625 -2.63672,-5.76172 -2.53906,-1.95313 -7.61718,-1.95313 -5.85938,0 -12.79297,2.73438 z"
     id="text1"
     style="font-size:200px;line-height:1;font-family:'Wingdings 2';-inkscape-font-specification:'Wingdings 2, ';text-align:center;letter-spacing:-14px;word-spacing:0px;text-anchor:middle;fill:#040c04;fill-opacity:1"
     aria-label="🙟"
     transform="translate(-47.42662,-170.72351)" />
</svg>
