<?xml version="1.0" encoding="UTF-8" standalone="no"?>
<!-- Created with Inkscape (http://www.inkscape.org/) -->

<svg
   width="195.11719"
   height="106.05469"
   viewBox="0 0 195.11718 106.05469"
   version="1.1"
   id="svg1"
   inkscape:version="1.4 (86a8ad7, 2024-10-11)"
   sodipodi:docname="fleuron_HEAVY_SE_BUD.svg"
   xmlns:inkscape="http://www.inkscape.org/namespaces/inkscape"
   xmlns:sodipodi="http://sodipodi.sourceforge.net/DTD/sodipodi-0.dtd"
   xmlns="http://www.w3.org/2000/svg"
   xmlns:svg="http://www.w3.org/2000/svg">
  <sodipodi:namedview
     id="namedview1"
     pagecolor="#505050"
     bordercolor="#eeeeee"
     borderopacity="1"
     inkscape:showpageshadow="0"
     inkscape:pageopacity="0"
     inkscape:pagecheckerboard="0"
     inkscape:deskcolor="#505050"
     inkscape:document-units="px"
     inkscape:zoom="1.2609375"
     inkscape:cx="133.63073"
     inkscape:cy="149.49195"
     inkscape:window-width="1920"
     inkscape:window-height="1009"
     inkscape:window-x="-8"
     inkscape:window-y="201"
     inkscape:window-maximized="1"
     inkscape:current-layer="svg1" />
  <defs
     id="defs1" />
  <path
     d="m 219.20396,276.7782 q -24.90234,0 -37.10937,-5.66406 -12.20703,-5.66407 -17.87109,-19.72657 -4.49219,6.64063 -10.15625,9.96094 -5.56641,3.32031 -12.20704,3.32031 -10.54687,0 -18.0664,-8.20312 -7.42188,-8.20313 -7.42188,-19.72656 0,-9.47266 5.95703,-23.33985 l 8.78907,4.10156 q -2.14844,5.07813 -2.14844,8.88672 0,6.15235 2.83203,9.27735 2.83203,3.125 8.49609,3.125 5.66407,0 9.57032,-4.00391 3.90625,-4.10156 3.90625,-10.05859 0,-12.5 -12.5,-22.26563 -12.5,-9.86328 -28.51563,-9.86328 -16.699217,0 -28.417967,11.13281 -11.71875,11.03516 -11.71875,26.66016 0,15.82031 9.277344,25.78125 9.277343,9.96094 25.097653,10.9375 v 9.66797 h -3.125 q -26.660153,0 -43.066403,-13.37891 -16.40625,-13.47656 -16.40625,-35.44922 0,-21.58203 15.820312,-36.62109 15.917969,-15.03906 38.671875,-15.03906 26.464846,0 55.468746,22.85156 l 5.85938,4.6875 q 17.77344,14.0625 27.63672,14.0625 5.5664,0 9.57031,-4.00391 4.00391,-4.0039 4.00391,-9.57031 0,-6.54297 -5.17578,-11.23047 -5.17579,-4.6875 -12.40235,-4.6875 -8.6914,0 -17.08984,8.78906 l -7.42188,-6.34765 q 12.69532,-20.11719 36.23047,-20.11719 15.42969,0 25.48828,8.78906 10.0586,8.69141 10.0586,22.07032 0,9.66796 -6.64063,16.69921 -6.64062,6.9336 -17.67578,8.98438 11.91406,5.07812 17.28516,21.28906 l 1.5625,4.88281 q 2.63672,8.00782 5.46875,10.83985 2.92968,2.83203 8.39843,2.83203 v 9.66797 z m -49.90234,-47.5586 q 3.125,38.67188 40.33203,38.67188 -7.32422,-2.73438 -12.5,-12.01172 l -1.66015,-2.83203 Q 183.55943,231.95398 169.30162,229.2196 Z"
     id="text1"
     style="font-size:200px;line-height:1;font-family:'Wingdings 2';-inkscape-font-specification:'Wingdings 2, ';text-align:center;letter-spacing:-14px;word-spacing:0px;text-anchor:middle;fill:#800000;fill-opacity:1"
     aria-label="🙧"
     transform="translate(-44.399277,-170.72351)" />
</svg>
