<?xml version="1.0" encoding="UTF-8" standalone="no"?>
<!-- Created with Inkscape (http://www.inkscape.org/) -->

<svg
   width="188.28125"
   height="153.41797"
   viewBox="0 0 188.28124 153.41797"
   version="1.1"
   id="svg1"
   inkscape:version="1.4 (86a8ad7, 2024-10-11)"
   sodipodi:docname="fleuron_NW_LEAF.svg"
   xmlns:inkscape="http://www.inkscape.org/namespaces/inkscape"
   xmlns:sodipodi="http://sodipodi.sourceforge.net/DTD/sodipodi-0.dtd"
   xmlns="http://www.w3.org/2000/svg"
   xmlns:svg="http://www.w3.org/2000/svg">
  <sodipodi:namedview
     id="namedview1"
     pagecolor="#505050"
     bordercolor="#eeeeee"
     borderopacity="1"
     inkscape:showpageshadow="0"
     inkscape:pageopacity="0"
     inkscape:pagecheckerboard="0"
     inkscape:deskcolor="#505050"
     inkscape:document-units="px"
     inkscape:zoom="1.2609375"
     inkscape:cx="132.04461"
     inkscape:cy="162.18092"
     inkscape:window-width="1920"
     inkscape:window-height="1009"
     inkscape:window-x="-8"
     inkscape:window-y="201"
     inkscape:window-maximized="1"
     inkscape:current-layer="svg1" />
  <defs
     id="defs1" />
  <path
     d="m 159.82896,259.00476 q 5.95704,3.80859 12.40235,7.32422 6.44531,3.41797 12.89062,6.64062 6.54297,3.125 12.79297,5.85938 6.34766,2.73437 12.01172,5.07812 13.28125,5.3711 26.36719,9.86329 l -9.86328,17.77343 q -8.98438,-3.41797 -19.23828,-8.00781 -8.78907,-3.90625 -20.01954,-9.57031 -11.13281,-5.56641 -23.33984,-12.79297 -1.5625,2.53906 -4.00391,5.66406 -2.34375,3.22266 -5.5664,6.64063 -3.22266,3.41797 -7.42188,6.64062 -4.19922,3.22266 -9.375,5.76172 -5.17578,2.53906 -11.32812,4.10156 -6.15235,1.5625 -13.28125,1.5625 -11.6211,0 -20.703127,-2.73437 -8.984375,-2.73438 -15.820313,-7.42188 -6.835937,-4.6875 -11.621093,-11.03515 -4.6875,-6.34766 -7.714844,-13.57422 -3.027344,-7.22656 -4.394531,-14.94141 -1.269532,-7.71484 -1.269532,-15.23437 0,-8.69141 1.367188,-16.89453 1.464844,-8.30079 3.222656,-14.7461 1.953125,-7.51953 4.589844,-14.35547 -3.515625,-3.22265 -6.25,-7.03125 -2.34375,-3.22265 -4.296875,-7.51953 -1.953125,-4.29687 -1.953125,-9.08203 0,-3.80859 0.976562,-7.22656 1.074219,-3.51563 3.125,-6.05469 2.050782,-2.53906 4.980469,-4.00391 3.027344,-1.5625 6.835938,-1.5625 4.492187,0 7.714843,1.66016 3.320313,1.5625 5.371094,4.19922 2.148438,2.53906 3.125,5.76172 0.976563,3.125 0.976563,6.15234 0,3.22266 -0.683594,6.05469 -0.683594,2.83203 -1.5625,5.37109 -0.878906,2.53907 -1.855469,4.78516 -0.878906,2.24609 -1.269531,4.10156 5.761719,5.17578 13.085937,11.52344 7.421875,6.25 17.38281,13.96484 9.96094,7.71485 23.04688,16.99219 13.18359,9.17969 30.5664,20.3125 z m -46.67968,36.03516 q 8.39843,0 14.9414,-2.14844 6.54297,-2.05078 11.42578,-5.17578 4.98047,-3.02735 8.39844,-6.64063 3.41797,-3.51562 5.46875,-6.44531 -1.36719,-0.87891 -2.83203,-1.75781 -1.46484,-0.97656 -2.83203,-1.95313 -7.91016,-5.27343 -15.42969,-10.74218 -7.42187,-5.56641 -14.35547,-10.9375 -6.83593,-5.3711 -12.98828,-10.44922 -6.152342,-5.17578 -11.42578,-9.66797 -12.402343,-10.54688 -22.851562,-20.50781 -1.367188,5.66406 -2.441406,12.01171 -0.878907,5.46875 -1.660157,12.30469 -0.683593,6.83594 -0.683593,13.96485 0,5.46875 1.269531,11.13281 1.269531,5.66406 3.808594,11.03515 2.539062,5.27344 6.445312,9.96094 3.90625,4.78516 9.179688,8.30078 5.273437,3.61328 11.914062,5.66407 6.640621,2.05078 14.648441,2.05078 z M 197.036,205.39148 q 0,5.17578 -1.36719,9.76562 -1.26953,4.58985 -3.41797,8.59375 -2.05078,3.90625 -4.78516,7.22657 -2.73437,3.32031 -5.5664,6.05468 -6.64063,6.34766 -15.03907,11.03516 l -13.76953,-9.86328 q 7.91016,-4.10156 14.16016,-9.17969 2.63672,-2.14844 5.17578,-4.6875 2.63672,-2.63672 4.58984,-5.5664 2.05079,-2.92969 3.22266,-6.25 1.26953,-3.32032 1.26953,-6.83594 0,-4.00391 -1.75781,-8.20313 -1.75781,-4.19922 -5.27344,-7.61718 -3.51562,-3.51563 -8.98437,-5.66407 -5.3711,-2.24609 -12.69532,-2.24609 -12.40234,0 -22.65625,2.34375 -10.15625,2.34375 -17.57812,5.17578 -8.69141,3.32031 -15.527345,7.51953 l -9.570312,-7.51953 q 8.300781,-6.64062 18.554687,-12.01172 4.39453,-2.24609 9.57031,-4.39453 5.27344,-2.14844 11.13282,-3.80859 5.95703,-1.75782 12.59765,-2.73438 6.64063,-1.07422 13.76953,-1.07422 9.47266,0 17.48047,2.73438 8.10547,2.63672 13.96485,7.8125 5.85937,5.07812 9.17968,12.5 3.32032,7.42187 3.32032,16.89453 z"
     id="text1"
     style="font-size:200px;line-height:1;font-family:'Wingdings 2';-inkscape-font-specification:'Wingdings 2, ';text-align:center;letter-spacing:-14px;word-spacing:0px;text-anchor:middle;fill:#040c04;fill-opacity:1"
     aria-label="ðŸ™"
     transform="translate(-48.012558,-158.12585)" />
</svg>
