<?xml version="1.0" encoding="UTF-8" standalone="no"?>
<!-- Created with Inkscape (http://www.inkscape.org/) -->

<svg
   width="188.28125"
   height="153.41797"
   viewBox="0 0 188.28124 153.41797"
   version="1.1"
   id="svg1"
   inkscape:version="1.4 (86a8ad7, 2024-10-11)"
   sodipodi:docname="fleuron_SW_turned_LEAF.svg"
   xmlns:inkscape="http://www.inkscape.org/namespaces/inkscape"
   xmlns:sodipodi="http://sodipodi.sourceforge.net/DTD/sodipodi-0.dtd"
   xmlns="http://www.w3.org/2000/svg"
   xmlns:svg="http://www.w3.org/2000/svg">
  <sodipodi:namedview
     id="namedview1"
     pagecolor="#505050"
     bordercolor="#eeeeee"
     borderopacity="1"
     inkscape:showpageshadow="0"
     inkscape:pageopacity="0"
     inkscape:pagecheckerboard="0"
     inkscape:deskcolor="#505050"
     inkscape:document-units="px"
     inkscape:zoom="1.2609375"
     inkscape:cx="131.25155"
     inkscape:cy="193.90335"
     inkscape:window-width="1920"
     inkscape:window-height="1009"
     inkscape:window-x="-8"
     inkscape:window-y="201"
     inkscape:window-maximized="1"
     inkscape:current-layer="svg1" />
  <defs
     id="defs1" />
  <path
     d="m 159.82896,179.12195 q -17.38281,11.13281 -30.5664,20.41015 -13.08594,9.17969 -23.04688,16.89454 -9.960935,7.71484 -17.38281,14.0625 -7.324218,6.25 -13.085937,11.42578 0.390625,1.95312 1.269531,4.19922 0.976563,2.14843 1.855469,4.6875 0.878906,2.53906 1.5625,5.37109 0.683594,2.83203 0.683594,6.05469 0,3.125 -0.976563,6.25 -0.976562,3.125 -3.125,5.76172 -2.050781,2.53906 -5.371094,4.10156 -3.222656,1.66015 -7.714843,1.66015 -3.808594,0 -6.835938,-1.5625 -2.929687,-1.46484 -4.980469,-4.0039 -2.050781,-2.53906 -3.125,-5.95703 -0.976562,-3.51563 -0.976562,-7.32422 0,-4.78516 1.953125,-9.08203 1.953125,-4.29688 4.296875,-7.51953 2.734375,-3.8086 6.25,-7.03125 -2.636719,-6.83594 -4.589844,-14.35547 -1.757812,-6.44532 -3.222656,-14.64844 -1.367188,-8.20313 -1.367188,-16.99219 0,-7.51953 1.367188,-15.23437 1.367187,-7.71485 4.296875,-14.94141 2.929687,-7.22656 7.714844,-13.57422 4.785156,-6.34765 11.621093,-11.03515 6.835938,-4.6875 15.917969,-7.42188 9.082031,-2.73437 20.605471,-2.73437 7.1289,0 13.28125,1.5625 6.15234,1.5625 11.32812,4.10156 5.17578,2.53906 9.27735,5.76172 4.19922,3.22265 7.51953,6.64062 3.32031,3.41797 5.66406,6.64063 2.34375,3.125 3.90625,5.66406 12.20703,-7.22656 23.33984,-12.79297 11.23047,-5.66406 20.01954,-9.57031 10.2539,-4.58985 19.23828,-8.00781 l 9.86328,17.77343 q -13.08594,4.49219 -26.36719,9.86328 -5.66406,2.34375 -12.01172,5.07813 -6.25,2.73437 -12.79297,5.95703 -6.44531,3.125 -12.89062,6.64063 -6.44531,3.41796 -12.40235,7.22656 z m -46.67968,-36.03516 q -8.10547,0 -14.746097,2.05078 -6.542969,2.05078 -11.816406,5.66407 -5.273438,3.51562 -9.179688,8.30078 -3.90625,4.6875 -6.445312,10.05859 -2.539063,5.27344 -3.808594,11.03516 -1.269531,5.66406 -1.269531,11.03515 0,7.12891 0.683593,13.96485 0.78125,6.83593 1.660157,12.30468 1.074218,6.34766 2.441406,12.01172 10.449219,-9.96093 22.851562,-20.50781 5.273438,-4.49219 11.42578,-9.57031 6.15235,-5.07813 12.98828,-10.44922 6.9336,-5.37109 14.35547,-10.83984 7.51953,-5.56641 15.42969,-10.9375 1.36719,-0.97657 2.83203,-1.85547 1.46484,-0.97657 2.83203,-1.85547 -2.05078,-2.92969 -5.46875,-6.44531 -3.41797,-3.61329 -8.39844,-6.64063 -4.88281,-3.125 -11.42578,-5.17578 -6.54297,-2.14844 -14.9414,-2.14844 z m 83.88672,89.64844 q 0,9.47266 -3.32032,16.89453 -3.32031,7.42188 -9.17968,12.59766 -5.85938,5.07812 -13.96485,7.8125 -8.00781,2.63672 -17.48047,2.63672 -7.1289,0 -13.76953,-0.97657 -6.64062,-1.07422 -12.59765,-2.73437 -5.85938,-1.66016 -11.13282,-3.8086 -5.17578,-2.24609 -9.57031,-4.49218 -10.253906,-5.27344 -18.554687,-12.01172 l 9.570312,-7.51953 q 6.835935,4.29687 15.527345,7.51953 7.42187,2.83203 17.67578,5.17578 10.25391,2.34375 22.55859,2.34375 7.32422,0 12.69532,-2.14844 5.46875,-2.24609 8.98437,-5.66406 3.51563,-3.51563 5.27344,-7.71484 1.75781,-4.19922 1.75781,-8.20313 0,-3.51562 -1.26953,-6.83594 -1.17187,-3.32031 -3.22266,-6.25 -1.95312,-2.92968 -4.58984,-5.46875 -2.53906,-2.63672 -5.17578,-4.78515 -6.25,-5.07813 -14.16016,-9.17969 l 13.76953,-9.86328 q 8.39844,4.6875 15.03907,11.03515 2.83203,2.73438 5.5664,6.05469 2.73438,3.32031 4.78516,7.32422 2.14844,3.90625 3.41797,8.49609 1.36719,4.58985 1.36719,9.76563 z"
     id="text1"
     style="font-size:200px;line-height:1;font-family:'Wingdings 2';-inkscape-font-specification:'Wingdings 2, ';text-align:center;letter-spacing:-14px;word-spacing:0px;text-anchor:middle;fill:#040c04"
     aria-label="🙕"
     transform="translate(-48.012558,-126.58289)" />
</svg>
