<?xml version="1.0" encoding="UTF-8" standalone="no"?>
<!-- Created with Inkscape (http://www.inkscape.org/) -->

<svg
   width="188.28125"
   height="153.41797"
   viewBox="0 0 188.28124 153.41797"
   version="1.1"
   id="svg1"
   inkscape:version="1.4 (86a8ad7, 2024-10-11)"
   sodipodi:docname="fleuron_SE_LEAF.svg"
   xmlns:inkscape="http://www.inkscape.org/namespaces/inkscape"
   xmlns:sodipodi="http://sodipodi.sourceforge.net/DTD/sodipodi-0.dtd"
   xmlns="http://www.w3.org/2000/svg"
   xmlns:svg="http://www.w3.org/2000/svg">
  <sodipodi:namedview
     id="namedview1"
     pagecolor="#505050"
     bordercolor="#eeeeee"
     borderopacity="1"
     inkscape:showpageshadow="0"
     inkscape:pageopacity="0"
     inkscape:pagecheckerboard="0"
     inkscape:deskcolor="#505050"
     inkscape:document-units="px"
     inkscape:zoom="1.2609375"
     inkscape:cx="132.83767"
     inkscape:cy="193.90335"
     inkscape:window-width="1920"
     inkscape:window-height="1009"
     inkscape:window-x="-8"
     inkscape:window-y="201"
     inkscape:window-maximized="1"
     inkscape:current-layer="svg1" />
  <defs
     id="defs1" />
  <path
     d="m 124.4774,179.12195 q -5.95703,-3.8086 -12.40234,-7.22656 -6.44531,-3.51563 -12.988283,-6.64063 -6.445313,-3.22266 -12.792969,-5.95703 -6.25,-2.73438 -11.914063,-5.07813 -13.28125,-5.37109 -26.367187,-9.86328 l 9.863281,-17.77343 q 8.984375,3.41796 19.238281,8.00781 8.789063,3.90625 19.921875,9.57031 11.230465,5.56641 23.437505,12.79297 1.5625,-2.44141 3.90625,-5.66406 2.4414,-3.22266 5.66406,-6.64063 3.22265,-3.41797 7.42187,-6.64062 4.19922,-3.22266 9.375,-5.76172 5.17578,-2.53906 11.32813,-4.10156 6.15234,-1.5625 13.28125,-1.5625 11.52344,0 20.60547,2.73437 9.08203,2.73438 15.91797,7.42188 6.83593,4.6875 11.52343,11.03515 4.78516,6.34766 7.71485,13.57422 3.02734,7.22656 4.39453,14.94141 1.36719,7.71484 1.36719,15.23437 0,8.69141 -1.46485,16.99219 -1.46484,8.20312 -3.125,14.64844 -2.05078,7.51953 -4.58984,14.35547 3.51562,3.22265 6.25,7.03125 2.34375,3.22265 4.29687,7.51953 1.95313,4.29687 1.95313,9.08203 0,3.80859 -1.07422,7.32422 -0.97656,3.41797 -3.02734,5.95703 -2.05079,2.53906 -5.07813,4.0039 -2.92969,1.5625 -6.73828,1.5625 -4.49219,0 -7.8125,-1.66015 -3.22266,-1.5625 -5.37109,-4.10156 -2.05079,-2.63672 -3.02735,-5.76172 -0.97656,-3.125 -0.97656,-6.25 0,-3.22266 0.68359,-6.05469 0.6836,-2.83203 1.5625,-5.37109 0.87891,-2.53907 1.75782,-4.6875 0.8789,-2.2461 1.36718,-4.19922 -5.76172,-5.17578 -13.18359,-11.42578 -7.32422,-6.34766 -17.28516,-14.0625 -9.96093,-7.71485 -23.14453,-16.89454 -13.08594,-9.27734 -30.46875,-20.41015 z m 46.67969,-36.03516 q -8.39844,0 -14.94141,2.14844 -6.54297,2.05078 -11.52343,5.17578 -4.88282,3.02734 -8.30079,6.64063 -3.41796,3.51562 -5.46875,6.44531 1.36719,0.8789 2.83204,1.85547 1.46484,0.8789 2.83203,1.85547 7.8125,5.37109 15.23437,10.9375 7.51953,5.46875 14.35547,10.83984 6.93359,5.37109 13.08594,10.44922 6.25,5.07812 11.52344,9.57031 12.40234,10.54688 22.85156,20.50781 1.26953,-5.66406 2.34375,-12.01172 0.8789,-5.46875 1.66015,-12.30468 0.78125,-6.83594 0.78125,-13.96485 0,-5.37109 -1.26953,-11.03515 -1.26953,-5.76172 -3.80859,-11.03516 -2.53906,-5.37109 -6.44531,-10.05859 -3.90625,-4.78516 -9.17969,-8.30078 -5.27344,-3.61329 -11.91406,-5.66407 -6.64063,-2.05078 -14.64844,-2.05078 z m -83.88672,89.64844 q 0,-5.17578 1.269532,-9.76563 1.269531,-4.58984 3.417968,-8.49609 2.148438,-4.00391 4.785157,-7.32422 2.734375,-3.32031 5.566403,-6.05469 6.64063,-6.34765 15.13672,-11.03515 l 13.76953,9.86328 q -8.00781,4.10156 -14.25781,9.17969 -2.63672,2.14843 -5.27344,4.78515 -2.53906,2.53907 -4.49218,5.46875 -1.95313,2.92969 -3.22266,6.25 -1.17188,3.32032 -1.17188,6.83594 0,4.00391 1.75782,8.20313 1.75781,4.19921 5.27343,7.71484 3.51563,3.41797 8.88672,5.66406 5.46875,2.14844 12.79297,2.14844 12.30469,0 22.46094,-2.34375 10.25391,-2.34375 17.67578,-5.17578 8.69141,-3.22266 15.625,-7.51953 l 9.57031,7.51953 q -8.30078,6.73828 -18.55468,12.01172 -4.39454,2.24609 -9.66797,4.49218 -5.17578,2.14844 -11.13282,3.8086 -5.95703,1.66015 -12.59765,2.73437 -6.54297,0.97657 -13.67188,0.97657 -9.47265,0 -17.57812,-2.63672 -8.00781,-2.73438 -13.86719,-7.8125 -5.859375,-5.17578 -9.179687,-12.59766 -3.320313,-7.42187 -3.320313,-16.89453 z"
     id="text1"
     style="font-size:200px;line-height:1;font-family:'Wingdings 2';-inkscape-font-specification:'Wingdings 2, ';text-align:center;letter-spacing:-14px;word-spacing:0px;text-anchor:middle;fill:#800000;fill-opacity:1"
     aria-label="🙓"
     transform="translate(-48.012558,-126.58289)" />
</svg>
