<?xml version="1.0" encoding="UTF-8" standalone="no"?>
<!-- Created with Inkscape (http://www.inkscape.org/) -->

<svg
   width="195.21484"
   height="106.05469"
   viewBox="0 0 195.21484 106.05469"
   version="1.1"
   id="svg1"
   sodipodi:docname="fleuron_HEAVY_NW_BUD.svg"
   inkscape:version="1.4 (86a8ad7, 2024-10-11)"
   xmlns:inkscape="http://www.inkscape.org/namespaces/inkscape"
   xmlns:sodipodi="http://sodipodi.sourceforge.net/DTD/sodipodi-0.dtd"
   xmlns="http://www.w3.org/2000/svg"
   xmlns:svg="http://www.w3.org/2000/svg">
  <sodipodi:namedview
     id="namedview1"
     pagecolor="#505050"
     bordercolor="#eeeeee"
     borderopacity="1"
     inkscape:showpageshadow="0"
     inkscape:pageopacity="0"
     inkscape:pagecheckerboard="0"
     inkscape:deskcolor="#505050"
     inkscape:zoom="3.8046409"
     inkscape:cx="100.00944"
     inkscape:cy="61.372415"
     inkscape:window-width="1920"
     inkscape:window-height="1009"
     inkscape:window-x="-8"
     inkscape:window-y="201"
     inkscape:window-maximized="1"
     inkscape:current-layer="svg1" />
  <defs
     id="defs1" />
  <path
     d="m 20.3125,0 q 24.902343,0 37.109375,5.66406 12.304688,5.66407 17.968748,19.82422 4.39453,-6.73828 9.96094,-10.05859 5.56641,-3.32031 12.30469,-3.32031 10.546867,0 17.968747,8.30078 7.51953,8.20312 7.51953,19.72656 0,9.375 -5.85938,23.24219 L 108.49609,59.375 q 2.14844,-5.17578 2.14844,-8.98437 0,-6.25 -2.92969,-9.27735 -2.83203,-3.125 -8.496087,-3.125 -5.66407,0 -9.57032,4.10156 -3.80859,4.10157 -3.80859,10.0586 0,12.5 12.5,22.26562 12.499997,9.76563 28.515627,9.76563 16.60156,0 28.32031,-11.03516 11.71875,-11.13281 11.71875,-26.75781 0,-15.82031 -9.27735,-25.68359 -9.27734,-9.96094 -25.09765,-11.03516 V 0 h 3.22265 q 26.66016,0 43.06641,13.47656 16.40625,13.47657 16.40625,35.35157 0,21.58203 -15.91797,36.62109 -15.82031,15.03906 -38.67187,15.03906 -26.36719,0 -55.371097,-22.85156 l -5.95703,-4.6875 Q 61.523437,58.98438 51.660156,58.98438 q -5.46875,0 -9.570313,4.0039 -4.003906,4.00391 -4.003906,9.47266 0,6.54297 5.175781,11.32812 5.175782,4.6875 12.402344,4.6875 8.789061,0 17.089841,-8.88672 l 7.51953,6.34766 q -12.79296,20.11719 -36.230465,20.11719 -15.429687,0 -25.488281,-8.69141 Q 8.496093,88.57422 8.496093,75.19531 q 0,-9.57031 6.542969,-16.5039 Q 21.679687,51.66016 32.8125,49.51172 20.800781,44.43359 15.527343,28.22266 l -1.5625,-4.88282 Q 11.328125,15.33203 8.398437,12.5 5.566406,9.66797 0,9.66797 V 0 Z m 50.000003,47.65625 q -3.125,-38.76953 -40.429691,-38.76953 7.324219,2.83203 12.5,12.01172 l 1.660156,2.83203 q 11.914063,21.19141 26.269535,23.92578 z"
     id="text1"
     style="font-size:200px;line-height:1;font-family:'Wingdings 2';-inkscape-font-specification:'Wingdings 2, ';text-align:center;letter-spacing:-14px;word-spacing:0px;text-anchor:middle;fill:#040c04;fill-opacity:1"
     aria-label="🙤" />
</svg>
