<?xml version="1.0" encoding="UTF-8" standalone="no"?>
<!-- Created with Inkscape (http://www.inkscape.org/) -->

<svg
   width="46.796555mm"
   height="27.67275mm"
   viewBox="0 0 46.796555 27.67275"
   version="1.1"
   id="svg1"
   sodipodi:docname="leafR.svg"
   inkscape:version="1.4 (86a8ad7, 2024-10-11)"
   xmlns:inkscape="http://www.inkscape.org/namespaces/inkscape"
   xmlns:sodipodi="http://sodipodi.sourceforge.net/DTD/sodipodi-0.dtd"
   xmlns="http://www.w3.org/2000/svg"
   xmlns:svg="http://www.w3.org/2000/svg">
  <sodipodi:namedview
     id="namedview1"
     pagecolor="#505050"
     bordercolor="#eeeeee"
     borderopacity="1"
     inkscape:showpageshadow="0"
     inkscape:pageopacity="0"
     inkscape:pagecheckerboard="0"
     inkscape:deskcolor="#505050"
     inkscape:document-units="mm"
     showgrid="false"
     inkscape:zoom="5.5012508"
     inkscape:cx="88.434434"
     inkscape:cy="52.260842"
     inkscape:window-width="1920"
     inkscape:window-height="1009"
     inkscape:window-x="-8"
     inkscape:window-y="-8"
     inkscape:window-maximized="1"
     inkscape:current-layer="svg1" />
  <defs
     id="defs1" />
  <g
     id="layer1"
     transform="translate(-77.315873,-103.60724)">
    <path
       style="font-size:52.9167px;line-height:0;font-family:Garamond;-inkscape-font-specification:Garamond;text-align:center;letter-spacing:-3.70417px;word-spacing:0px;text-anchor:middle;fill:#dc143c;stroke-width:0.264583;fill-opacity:1"
       d="m 139.4815,125.05298 q 0,-0.98186 -0.25838,-1.83452 -0.23254,-0.8785 -0.64595,-1.67948 -0.41342,-0.82683 -0.98186,-1.60197 -0.5426,-0.77515 -1.13688,-1.60197 -1.11104,0.82682 -1.757,2.11873 -0.62012,1.29191 -0.62012,2.99724 0,1.18856 0.23255,2.06706 0.23254,0.87849 0.64595,1.44694 0.41342,0.56844 0.95602,0.85266 0.5426,0.25838 1.13688,0.25838 1.11104,0 1.757,-0.80099 0.67179,-0.82682 0.67179,-2.22208 z m 7.23471,-1.91203 q 0,-1.5503 0.74931,-2.76469 0.74931,-1.24024 2.06706,-2.04122 -1.78284,-0.82683 -3.61736,-1.31775 -1.83451,-0.49093 -3.64319,-0.49093 -0.90433,0 -1.757,0.12919 -0.85266,0.12919 -1.67948,0.41341 0.67179,0.8785 1.34359,1.78284 0.69763,0.90434 1.24023,1.91203 0.5426,1.00769 0.8785,2.11874 0.36174,1.11104 0.36174,2.37711 0,1.39527 -0.43925,2.53215 -0.43925,1.11104 -1.26608,1.88619 -0.80098,0.77515 -1.93786,1.18856 -1.13689,0.41341 -2.50631,0.41341 -1.26608,0 -2.45463,-0.41341 -1.18856,-0.43925 -2.11874,-1.36943 -0.93018,-0.95601 -1.49862,-2.48047 -0.5426,-1.52445 -0.5426,-3.7207 0,-2.4288 1.16272,-4.47002 1.18856,-2.04122 3.38481,-3.35897 -0.82682,-1.31775 -1.4211,-2.81636 -0.56844,-1.52446 -0.56844,-3.3073 0,-1.4211 0.49092,-2.50631 0.51677,-1.0852 1.34359,-1.78283 0.85266,-0.72347 1.96371,-1.08521 1.11104,-0.36174 2.32544,-0.36174 1.11104,0 1.93786,0.18087 0.85267,0.15503 1.757,0.46509 l -0.51676,2.6355 q -0.69763,-0.15503 -1.52446,-0.15503 -0.74931,0 -1.47278,0.20671 -0.69763,0.2067 -1.24023,0.67179 -0.5426,0.46509 -0.8785,1.2144 -0.3359,0.74931 -0.3359,1.83451 0,0.98185 0.23255,1.88619 0.25838,0.90434 0.62011,1.70533 0.90434,-0.28422 1.88619,-0.38758 0.98186,-0.12919 2.06706,-0.12919 2.0929,0 4.05661,0.43925 1.98954,0.43925 3.95324,1.34359 -0.2067,-0.46509 -0.31005,-1.00769 -0.0775,-0.56844 -0.0775,-1.31775 0,-1.03353 0.36174,-2.01538 0.38757,-1.00769 1.11104,-1.757 0.74931,-0.74931 1.86035,-1.2144 1.11105,-0.46509 2.60966,-0.46509 2.01539,0 3.33314,0.80099 1.31775,0.77514 2.19625,1.9637 0.8785,1.16272 1.49861,2.53215 0.62012,1.36943 1.24024,2.55798 0.62012,1.16272 1.39526,1.96371 0.77515,0.77515 2.01539,0.77515 0.56844,0 1.00769,-0.18087 0.46508,-0.20671 0.77514,-0.51677 0.31006,-0.33589 0.46509,-0.7493 0.18087,-0.41342 0.18087,-0.8785 0,-0.74931 -0.41341,-1.36943 -0.41341,-0.64596 -1.2144,-0.95602 l 0.90434,-2.40295 q 1.31775,0.36173 2.22209,1.11104 0.90433,0.72347 1.44694,1.67949 0.56844,0.93017 0.82682,2.01538 0.25838,1.05937 0.25838,2.0929 0,1.86035 -0.64595,3.514 -0.64596,1.62781 -1.80868,3.02307 -1.13688,1.39526 -2.71301,2.50631 -1.5503,1.11104 -3.38481,1.88619 -1.80868,0.77515 -3.82406,1.18856 -2.01538,0.41341 -4.03076,0.41341 -1.83452,0 -3.59152,-0.41341 -1.73116,-0.41341 -3.10059,-1.31775 -1.34358,-0.93018 -2.17041,-2.35128 -0.82682,-1.44694 -0.82682,-3.48816 z"
       id="text1-8"
       transform="skewX(-22.693115)"
       aria-label="â§" />
  </g>
</svg>
