<?xml version="1.0" encoding="UTF-8" standalone="no"?>
<!-- Created with Inkscape (http://www.inkscape.org/) -->

<svg
   width="171.61612"
   height="104.6875"
   viewBox="0 0 171.61612 104.6875"
   version="1.1"
   id="svg1"
   sodipodi:docname="leafL.svg"
   inkscape:version="1.4 (86a8ad7, 2024-10-11)"
   xmlns:inkscape="http://www.inkscape.org/namespaces/inkscape"
   xmlns:sodipodi="http://sodipodi.sourceforge.net/DTD/sodipodi-0.dtd"
   xmlns="http://www.w3.org/2000/svg"
   xmlns:svg="http://www.w3.org/2000/svg">
  <sodipodi:namedview
     id="namedview1"
     pagecolor="#505050"
     bordercolor="#eeeeee"
     borderopacity="1"
     inkscape:showpageshadow="0"
     inkscape:pageopacity="0"
     inkscape:pagecheckerboard="0"
     inkscape:deskcolor="#505050"
     inkscape:zoom="7.7086567"
     inkscape:cx="85.812616"
     inkscape:cy="52.34375"
     inkscape:window-width="1920"
     inkscape:window-height="1009"
     inkscape:window-x="-8"
     inkscape:window-y="-8"
     inkscape:window-maximized="1"
     inkscape:current-layer="svg1" />
  <defs
     id="defs1" />
  <g
     id="layer1"
     transform="translate(-339.98908,-188.71121)">
    <path
       style="font-size:200px;line-height:0;font-family:Garamond;-inkscape-font-specification:Garamond;text-align:center;letter-spacing:-14px;word-spacing:0px;text-anchor:middle;fill:#dc143c;fill-opacity:1"
       d="m 543.67969,262.63699 q 0,7.71485 -3.125,13.1836 -3.125,5.37109 -8.30078,8.78906 -5.07813,3.41797 -11.71875,4.98047 -6.54297,1.5625 -13.47657,1.5625 -7.61718,0 -15.23437,-1.5625 -7.51953,-1.5625 -14.45313,-4.49219 -6.83593,-2.92969 -12.79297,-7.12891 -5.85937,-4.19921 -10.2539,-9.47265 -4.29688,-5.27344 -6.83594,-11.42578 -2.44141,-6.25 -2.44141,-13.28125 0,-3.90625 0.97657,-7.91016 0.97656,-4.10156 3.125,-7.61719 2.14843,-3.51562 5.5664,-6.25 3.41797,-2.83203 8.39844,-4.19922 l 3.32031,8.98438 q -3.02734,1.07422 -4.6875,3.51562 -1.5625,2.34375 -1.5625,5.27344 0,1.66016 0.58594,3.32031 0.68359,1.5625 1.85547,2.83204 1.17187,1.17187 2.92969,1.95312 1.75781,0.68359 4.0039,0.68359 3.41797,0 5.85938,-1.66015 2.53906,-1.75781 4.49219,-4.58985 1.95312,-2.83203 3.61328,-6.44531 1.75781,-3.61328 3.51562,-7.32422 1.85547,-3.71093 4.10156,-7.32422 2.2461,-3.61328 5.27344,-6.44531 3.125,-2.83203 7.22656,-4.49219 4.19922,-1.75781 9.96094,-1.75781 5.66406,0 9.86328,1.75781 4.19922,1.66016 6.9336,4.58985 2.83203,2.83203 4.19922,6.54297 1.46484,3.71093 1.46484,7.8125 0,2.73437 -0.39063,4.88281 -0.29296,2.05078 -0.97656,3.90625 14.55078,-6.93359 30.07813,-6.93359 4.10156,0 7.8125,0.58593 3.80859,0.48828 7.22656,1.5625 1.46484,-3.125 2.34375,-6.44531 0.87891,-3.41797 0.87891,-7.32422 0,-4.10156 -1.26954,-6.93359 -1.17187,-2.83203 -3.22265,-4.49219 -2.05078,-1.75781 -4.78516,-2.53906 -2.63672,-0.78125 -5.5664,-0.78125 -3.02735,0 -5.76172,0.68359 l -1.95313,-10.05859 q 3.41797,-1.26953 6.64063,-1.85547 3.22265,-0.58594 7.42187,-0.58594 4.49219,0 8.69141,1.36719 4.19922,1.36719 7.32422,4.10156 3.22265,2.73438 5.07812,6.83594 1.95313,4.00391 1.95313,9.375 0,6.83594 -2.2461,12.5 -2.14843,5.66406 -5.27343,10.74219 8.10546,4.98047 12.69531,12.69531 4.58984,7.61719 4.58984,16.89453 0,8.10547 -2.14844,13.86719 -2.05078,5.76172 -5.5664,9.375 -3.51563,3.61328 -8.00781,5.27344 -4.49219,1.66015 -9.27735,1.66015 -5.27344,0 -9.57031,-1.5625 -4.29688,-1.5625 -7.32422,-4.49219 -3.02734,-3.02734 -4.6875,-7.22656 -1.66016,-4.29687 -1.66016,-9.57031 0,-4.88281 1.26954,-8.98438 1.36718,-4.19921 3.41796,-7.91015 2.05079,-3.8086 4.58985,-7.22656 2.53906,-3.41797 5.07812,-6.9336 -6.15234,-1.95312 -12.98828,-1.95312 -6.83594,0 -13.76953,1.75781 -6.83594,1.75781 -13.57422,5.07812 4.98047,3.02735 7.71485,7.71485 2.83203,4.6875 2.83203,10.54687 z m 27.34375,7.12891 q 0,5.27344 2.53906,8.30078 2.53906,3.02734 6.64062,3.02734 2.34375,0 4.39454,-0.97656 2.05078,-0.97656 3.51562,-3.125 1.5625,-2.14844 2.44141,-5.37109 0.97656,-3.32031 0.97656,-7.91016 0,-6.44531 -2.44141,-11.23047 -2.34375,-4.88281 -6.64062,-8.20312 -2.2461,3.02734 -4.29688,6.05469 -2.05078,2.92968 -3.71093,6.05468 -1.5625,3.125 -2.53907,6.44532 -0.8789,3.32031 -0.8789,6.93359 z"
       id="text1"
       transform="skewX(-22.693116)"
       aria-label="☙" />
  </g>
</svg>
