<?xml version="1.0" encoding="UTF-8" standalone="no"?>
<!-- Created with Inkscape (http://www.inkscape.org/) -->

<svg
   width="1228"
   height="180"
   viewBox="0 0 1228 180"
   version="1.1"
   id="svg1"
   inkscape:version="1.4 (86a8ad7, 2024-10-11)"
   sodipodi:docname="PRÆDIVM.svg"
   xmlns:inkscape="http://www.inkscape.org/namespaces/inkscape"
   xmlns:sodipodi="http://sodipodi.sourceforge.net/DTD/sodipodi-0.dtd"
   xmlns="http://www.w3.org/2000/svg"
   xmlns:svg="http://www.w3.org/2000/svg"
   xmlns:rdf="http://www.w3.org/1999/02/22-rdf-syntax-ns#"
   xmlns:cc="http://creativecommons.org/ns#"
   xmlns:dc="http://purl.org/dc/elements/1.1/">
  <title
     id="title1">PRÆDIVM</title>
  <sodipodi:namedview
     id="namedview1"
     pagecolor="#505050"
     bordercolor="#eeeeee"
     borderopacity="1"
     inkscape:showpageshadow="0"
     inkscape:pageopacity="0"
     inkscape:pagecheckerboard="0"
     inkscape:deskcolor="#505050"
     inkscape:document-units="px"
     inkscape:zoom="22.627417"
     inkscape:cx="403.537"
     inkscape:cy="18.362679"
     inkscape:window-width="1920"
     inkscape:window-height="1009"
     inkscape:window-x="-8"
     inkscape:window-y="444"
     inkscape:window-maximized="1"
     inkscape:current-layer="layer1"
     showgrid="false" />
  <defs
     id="defs1" />
  <g
     inkscape:label="Layer 1"
     inkscape:groupmode="layer"
     id="layer1">
    <g
       id="text1"
       style="font-size:266.667px;font-family:Garamond;-inkscape-font-specification:Garamond;text-align:center;text-anchor:middle;fill:#ffffff"
       aria-label="PRÆDIVM"
       inkscape:label="PRÆDIVM">
      <path
         d="m 735.46893,167.99489 c 1.90973,-0.78125 3.86285,-1.25869 5.85938,-1.4323 13.28127,-0.86805 20.87676,-2.43055 22.78649,-4.6875 1.90973,-2.34375 2.86459,-13.49828 2.86459,-33.46358 l -0.13021,-13.6719 v -14.32293 l -0.52084,-15.755227 0.26042,-9.244803 -0.13021,-10.156262 V 53.281207 l -0.26041,-5.338549 0.26041,-6.770841 c 0.0868,-1.562502 0.13021,-3.385421 0.13021,-5.468757 0,-5.468757 -0.26042,-11.241333 -0.78125,-17.317729 -0.34722,-1.215279 -0.82465,-2.387156 -1.43229,-3.51563 -3.21181,-1.649307 -8.42015,-2.734378 -15.62502,-3.255212 -7.11807,-0.607639 -11.15453,-1.258682 -12.10939,-1.9531273 -0.69445,-0.520834 -1.08507,-1.8663218 -1.17188,-4.0364633 h 10.93751 l 34.50526,0.781251 c 8.85417,0 20.65974,-0.260417 35.41671,-0.781251 0,1.3888906 -0.0868,2.6909755 -0.26042,3.9062548 -1.73611,0.4340285 -4.6441,0.9114598 -8.72397,1.4322938 -8.24654,0.954862 -13.28127,1.866321 -15.10419,2.734378 -1.12847,0.434028 -1.95313,1.171876 -2.47396,2.213544 -0.86805,1.562502 -1.38889,4.470492 -1.5625,8.723969 l -0.65104,16.796896 0.52083,57.942779 v 22.916697 c -0.17361,7.20487 -0.26041,12.10939 -0.26041,14.71356 0,9.72223 0.21701,15.92884 0.65104,18.61981 0.52083,2.69097 1.34549,4.6441 2.47396,5.85938 1.21528,1.12847 3.16841,2.03993 5.85938,2.73438 3.99306,0.95487 7.11806,1.4757 9.37501,1.5625 4.86112,0.17361 7.94272,0.86806 9.24481,2.08334 0.26041,1.12847 0.39062,2.08334 0.39062,2.86459 v 1.04166 c -7.89931,0.26042 -13.71529,0.39063 -17.44794,0.39063 -2.17014,0 -6.03299,-0.13021 -11.58855,-0.39063 l -17.96877,0.26042 -30.599,-0.13021 h -2.47396 z M 822.05761,7.0571918 822.96907,4.8436475 c 7.03125,0 14.06251,0.086806 21.09377,0.260417 l 5.00399,0.6187184 c 1.29224,0.1597799 10.159,-0.1317911 11.7215,-0.2185968 5.64236,-0.260417 7.7103,-0.9209556 22.46727,-0.9209556 2.95139,0 5.81598,0.043403 8.59376,0.1302085 2.77778,0 5.46875,0.043403 8.07292,0.1302085 0.52084,0.260417 0.91147,0.6510425 1.17188,1.1718764 l -0.26042,2.0833359 c -0.52083,0.8680566 -1.82292,1.3020849 -3.90625,1.3020849 h -1.04167 c -2.43056,-0.086806 -6.42362,0.1302084 -11.97918,0.6510423 -5.55556,0.434029 -9.2014,1.302085 -10.93751,2.60417 -1.12847,0.954862 -1.69271,2.213544 -1.69271,3.776046 0,3.385421 1.43229,8.463552 4.29688,15.234394 l 19.79169,45.963598 6.90105,15.234393 c 6.68403,16.145852 13.28126,32.638932 19.79169,49.479232 0.69445,1.82291 1.34549,3.47222 1.95313,4.94792 l 8.72396,-21.35419 c 4.5139,-10.76391 9.0712,-22.22226 13.6719,-34.375047 l 8.98438,-24.479196 c 0.17361,-0.520834 0.65105,-2.256947 1.4323,-5.20834 8.42015,-23.0035 12.63022,-37.543448 12.63022,-43.619845 0,-1.302085 -0.60764,-2.60417 -1.82292,-3.906255 -1.12847,-1.38889 -2.99479,-2.517363 -5.59896,-3.38542 -1.04167,-0.347223 -4.4271,-0.868057 -10.15627,-1.5625023 l -9.63543,-1.1718764 c -0.78125,-0.8680566 -1.17187,-1.6059047 -1.17187,-2.2135444 l 0.39062,-1.0416679 38.29846,0.8468114 17.8214,-1.2374369 c 4.67625,-0.3246969 7.89935,0.3038198 9.63545,0.9114594 l 0.1302,1.041668 c 0,0.6944453 -0.2604,1.6059047 -0.7813,2.7343783 -2.0833,0.6944452 -3.993,1.1284738 -5.7291,1.3020848 -7.2917,0.868057 -11.80561,1.909725 -13.54172,3.125004 -1.73611,1.128473 -3.55903,3.602435 -5.46875,7.421884 l -34.24484,84.635521 c -10.67709,25.43406 -18.27259,45.13894 -22.78648,59.11465 l -3.77605,11.32814 c -1.12847,0.69445 -2.08334,1.04167 -2.86459,1.04167 -0.95486,0 -1.99653,-0.0868 -3.125,-0.26042 -10.32987,-26.73614 -18.75002,-47.39589 -25.26045,-61.97924 l -39.8438,-90.364692 c -2.86459,-5.381951 -5.03473,-8.59376 -6.51042,-9.635428 -1.38889,-1.128474 -6.38022,-2.690976 -14.97398,-4.687506 -3.0382,-0.6944452 -4.73091,-1.1284735 -5.07813,-1.3020848 -0.60764,-0.4340283 -1.04167,-1.0850707 -1.30208,-1.9531274 z M 1006.6932,169.16676 c 2.691,-1.82291 7.5521,-3.125 14.5833,-3.90625 5.4688,-0.26042 8.724,-0.73785 9.7657,-1.43229 0.6944,-0.52083 1.2152,-1.17188 1.5625,-1.95313 1.3021,-3.21181 2.2569,-11.93578 2.8646,-26.17191 0.7812,-18.48961 2.0399,-43.099011 3.776,-73.828213 1.3889,-23.437529 2.0833,-38.064283 2.0833,-43.880262 v -3.385421 c -6.25,-1.302085 -16.1458,-2.690975 -29.6875,-4.166671 -0.8681,-1.3020851 -1.3021,-2.3003504 -1.3021,-2.9947957 0,-0.4340283 0.3038,-1.2152792 0.9115,-2.3437528 1.4757,-0.520834 2.6041,-0.781251 3.3854,-0.781251 0.6945,0 2.2136,0.1736113 4.5573,0.520834 4.2535,0.6076396 10.4664,1.8837312 17.9318,1.8837312 2.4305,0 6.4204,-0.4387763 12.1464,-1.4931057 4.1667,-0.260417 6.5104,-0.3906255 7.0312,-0.3906255 1.3889,0 2.9948,0.2170141 4.8177,0.6510424 0.8681,0.8680567 1.5191,1.6927105 1.9532,2.4739614 l 5.4687,12.2395987 36.849,81.51052 15.2344,34.24483 c 12.066,-23.87156 21.441,-45.095545 28.1251,-63.671954 0.434,-1.38889 0.9548,-2.647572 1.5625,-3.776046 0.7812,-1.475696 1.519,-3.125004 2.2135,-4.947923 0.6945,-1.822919 3.5157,-8.767371 8.4636,-20.833358 1.9965,-4.861117 3.6024,-9.027789 4.8177,-12.500016 4.9479,-13.888906 7.8559,-21.8316234 8.7239,-23.8281536 1.6493,-0.6076397 3.0816,-0.9114595 4.2969,-0.9114595 1.3889,0 3.1685,0.086806 5.3386,0.260417 4.8611,0.260417 12.7604,0.3906255 23.6979,0.3906255 6.7709,0 12.3264,-0.086806 16.6667,-0.260417 0.1736,0.9548623 0.2604,1.6493076 0.2604,2.0833359 0,0.6076396 -0.1302,1.4322935 -0.3906,2.4739617 -2.7778,1.475696 -6.1198,2.30035 -10.0261,2.473961 -7.7257,0.434028 -12.6302,1.041668 -14.7135,1.822919 -2.0833,0.781251 -3.4288,1.779516 -4.0365,2.994795 -0.5208,1.215279 -0.9982,5.20834 -1.4323,11.979182 l 0.1302,5.98959 -0.1302,6.250008 c 0,13.020849 0.3472,34.895877 1.0417,65.625082 l -0.1302,25.52086 0.1302,16.40627 c 0,6.42362 0.3038,10.24307 0.9114,11.45835 0.6077,1.12847 2.3438,2.21354 5.2084,3.25521 4.6875,1.5625 12.3264,3.16841 22.9167,4.81772 0.6076,0.43403 0.9114,0.99826 0.9114,1.69271 0,0.78125 -0.043,1.6493 -0.1302,2.60417 h -5.9896 c -5.1215,0 -10.6771,-0.17361 -16.6666,-0.52084 -5.9896,-0.26041 -9.2014,-0.39062 -9.6355,-0.39062 -17.7951,0 -29.6007,0.17361 -35.4167,0.52083 -3.559,0.26042 -5.8159,0.39063 -6.7708,0.39063 -0.6077,0 -1.2587,-0.17361 -1.9532,-0.52084 v -1.69271 c 0,-0.78125 0.1302,-1.6059 0.3907,-2.47396 2.8646,-1.21528 6.7708,-2.03993 11.7187,-2.47396 5.4688,-1.47569 9.4619,-3.0382 11.9792,-4.68751 0.7813,-3.29861 1.1719,-10.02605 1.1719,-20.18231 l -0.3906,-26.30212 c 0,-2.86459 0.1302,-8.20313 0.3906,-16.015643 0.3472,-7.812509 0.5208,-20.529539 0.5208,-38.151088 0,-13.975711 -0.3472,-24.566002 -1.0416,-31.770872 -1.4757,3.038198 -4.3837,9.635428 -8.724,19.791691 l -1.9531,4.947923 -0.2605,0.781251 -19.2708,45.572968 -6.9011,17.57815 -8.9843,21.35419 c -3.9063,9.80904 -7.2483,18.48961 -10.0261,26.0417 -1.2153,3.47223 -2.2135,6.20661 -2.9948,8.20314 l -2.9948,-0.13021 c -9.809,-28.64587 -21.5278,-58.02958 -35.1563,-88.151151 -13.5417,-30.121565 -23.0469,-50.000061 -28.5156,-59.63549 -0.6945,3.732643 -1.4757,14.583351 -2.3438,32.552123 -1.1285,21.875027 -1.6927,45.963598 -1.6927,72.265718 0,8.24653 0.6076,17.53474 1.8229,27.86461 0.3472,2.95139 1.6059,5.16494 3.7761,6.64064 2.1701,1.38889 7.7691,2.17014 16.7969,2.34375 3.4722,0 6.7708,0.26042 9.8958,0.78125 0.6077,1.30209 0.9115,2.25695 0.9115,2.86459 0,0.43403 -0.8358,1.26026 -1.2698,2.30193 l -39.0806,-2.49295 c -4.7192,-0.0884 -8.3476,1.18928 -14.5976,1.62331 -3.4723,0.26042 -8.4636,0.43403 -14.974,0.52083 z"
         id="path5"
         inkscape:label="IVM"
         style="font-size:266.667px;font-family:Garamond;-inkscape-font-specification:Garamond;text-align:center;text-anchor:middle;fill:#dc143c;fill-opacity:1"
         sodipodi:nodetypes="ccccccccccccsccccccccccccccccscccccscsccccccccscsccccscccscccccccccscscccccscccccccccscccccccccccccsccscscscscccccccscccscscsccsccccccccccscscscscsccccccscccccccccccccsscccsccccc" />
      <path
         style="font-size:266.667px;font-family:Garamond;-inkscape-font-specification:Garamond;text-align:center;text-anchor:middle;fill:#dc143c;letter-spacing:-18px;fill-opacity:1"
         d="m 545.39579,169.55739 q 4.81771,-2.08334 11.19793,-2.73438 9.2448,-1.04167 13.8021,-4.42709 3.51563,-7.16146 3.51563,-36.45837 V 105.3646 l 0.26041,-12.369803 -0.26041,-9.114595 0.26041,-16.796895 -0.39062,-42.31776 q 0,-7.161467 -2.08334,-9.375012 -2.99479,-3.255212 -15.88543,-5.9895903 -5.33855,-1.1718764 -6.51043,-2.0833359 -1.17187,-1.0416679 -1.43229,-3.7760462 2.99479,-0.6510425 4.16667,-0.6510425 h 9.2448 l 4.81772,-0.1302085 q 4.81771,0 10.67709,1.0416679 11.97919,0.781251 24.60941,0.781251 3.64584,0 10.41668,-0.3906255 17.96877,-1.0416679 25.78128,-1.0416679 15.75523,0 29.68754,3.1250038 14.06251,3.1250038 28.90628,11.5885561 9.2448,5.338548 18.88023,16.927104 9.76564,11.458347 14.71356,25.130239 5.07813,13.541683 5.07813,30.598995 0,15.234395 -5.59896,30.208375 -5.46876,14.97397 -15.3646,26.04169 -9.89585,10.93752 -20.05211,16.53648 -10.15626,5.46876 -30.98962,9.50522 -8.59376,1.5625 -30.85941,1.5625 -14.71356,0 -23.95837,-0.91146 -3.64584,-0.52083 -7.81251,-0.52083 -0.65104,0 -1.43229,0.13021 l -53.12507,0.91146 -0.26041,-1.04167 q -0.26042,-0.65104 -0.26042,-1.43229 z m 66.27612,-5.07813 q 9.89585,3.38542 20.05211,3.38542 13.15106,0 25.78128,-4.03646 12.63022,-4.16668 22.26565,-11.58856 9.76564,-7.55209 16.01565,-16.9271 6.25,-9.50522 8.85417,-17.05732 3.64584,-11.06772 3.64584,-28.776073 0,-16.927104 -7.16147,-34.375042 Q 696.17722,42.994736 683.67721,31.927014 671.3074,20.859292 654.3803,15.781161 q -16.92711,-5.20834 -36.58859,-5.20834 -13.54168,0 -20.05211,2.994795 -0.78125,0.781251 -1.5625,1.822919 -0.78125,3.255213 -0.78125,5.989591 0,1.69271 0.13021,4.036463 0.39062,15.104185 0.39062,24.21878 l -0.13021,29.557328 q 0,65.104243 2.34376,72.526133 2.47396,7.29167 13.54168,12.76043 z"
         id="path4"
         inkscape:label="D" />
      <path
         d="m 3.5982244,5.8853154 c 1.5625019,-0.260417 2.560767,-0.3906255 2.9947953,-0.3906255 2.9513922,0 7.8125093,0.1736113 14.5833513,0.520834 3.559032,0.086806 5.98959,0.1302085 7.291675,0.1302085 1.909725,0 5.946188,-0.1736113 12.10939,-0.520834 L 62.71288,4.3228135 c 5.815979,-0.5208339 12.586821,-0.7812509 20.312525,-0.7812509 13.62849,0 24.479195,1.9531274 32.552125,5.8593821 8.07293,3.8194493 14.27953,9.8524423 18.61981,18.0989803 4.42709,8.246538 6.64064,16.449673 6.64064,24.609405 0,13.628489 -4.77431,25.390656 -14.32294,35.286502 -9.54862,9.895845 -22.39586,14.843768 -38.541713,14.843768 -4.513894,0 -8.28994,-0.43403 -11.328138,-1.30209 -3.038199,-0.954859 -6.510425,-2.734374 -10.41668,-5.338543 -1.649307,-1.128474 -2.647572,-2.300351 -2.994795,-3.51563 0.347223,-0.607639 0.824654,-1.041668 1.432293,-1.302085 1.215279,0 2.473962,0.260417 3.776047,0.781251 2.951392,1.041668 6.684035,1.562502 11.19793,1.562502 6.857647,0 13.324669,-1.69271 19.401065,-5.078131 6.163201,-3.385421 10.807301,-8.203135 13.932311,-14.453143 3.125,-6.250007 4.6875,-12.847237 4.6875,-19.79169 0,-6.770842 -1.64931,-13.32467 -4.94792,-19.661483 -3.29861,-6.423619 -7.6389,-11.545153 -13.020848,-15.364602 -3.038199,-2.170141 -7.725704,-3.99306 -14.062517,-5.468757 -6.250008,-1.475696 -11.111125,-2.213544 -14.583352,-2.213544 -10.763902,0 -17.144118,0.781251 -19.140648,2.343753 l -0.130208,1.822919 0.520834,14.713559 -0.130209,2.60417 c -0.173611,2.343753 -0.260417,5.946188 -0.260417,10.807305 0,17.708355 0.260417,28.732674 0.781251,33.072957 v 7.291676 l 1.69271,59.505276 c 0,0.86806 -0.130208,2.47397 -0.390625,4.81772 -0.173611,2.34375 -0.260417,4.38369 -0.260417,6.1198 0,4.16667 0.347223,7.33508 1.041668,9.50522 2.083336,0.60764 8.159732,2.03993 18.229189,4.29688 4.687505,1.12847 7.248272,1.77952 7.682301,1.95313 0.694445,0.26041 1.302085,0.82465 1.822919,1.69271 -0.347223,1.30208 -0.824654,2.12673 -1.432294,2.47396 -0.520834,0.43403 -1.605905,0.65104 -3.255212,0.65104 -1.041668,0 -3.472227,-0.21701 -7.291676,-0.65104 -7.465287,-0.78125 -16.824669,-2.17188 -21.078146,-2.17188 l -17.916695,1.91146 -15.171891,-0.39063 c -0.868057,0 -3.385421,0.0868 -7.5520929,0.26042 L 8.6763556,170.33864 25.60346,167.08343 c 2.777781,-0.78125 4.470491,-1.5625 5.078131,-2.34375 0.868057,-1.21528 1.302085,-3.60244 1.302085,-7.16147 0,-0.78125 0.0434,-2.47396 0.130208,-5.07813 0.08681,-1.82292 0.130209,-4.34028 0.130209,-7.55209 0,-10.24307 -0.434028,-32.0747 -1.302085,-65.494876 C 30.594785,63.828095 30.421174,47.942658 30.421174,31.796805 v -2.213544 c 0,-6.250007 -0.954862,-10.199665 -2.864587,-11.848973 C 24.344778,14.869701 16.315254,12.525949 3.4680159,10.70303 3.0339876,9.7481675 2.8169734,8.9669164 2.8169734,8.3592768 c 0,-0.6944453 0.260417,-1.5190991 0.781251,-2.4739614 z M 155.16091,168.25531 c 12.67363,-1.4757 19.83509,-2.51737 21.4844,-3.12501 1.12847,-0.43403 2.17014,-1.73611 3.125,-3.90625 v -1.4323 c 0,-2.17014 0.34722,-10.02605 1.04167,-23.56773 0.17361,-3.81945 0.26042,-7.5521 0.26042,-11.19793 l -0.39063,-15.49481 0.26042,-17.578151 -0.13021,-32.682332 0.13021,-23.437528 c 0.0868,-9.895845 -0.69444,-15.928839 -2.34375,-18.098981 -1.5625,-2.170141 -5.68577,-3.68924 -12.36981,-4.557297 -6.68403,-0.954862 -10.37327,-1.649307 -11.06772,-2.083336 -0.69445,-0.434028 -1.04167,-1.1284733 -1.04167,-2.0833358 0,-0.6076396 0.13021,-1.3888905 0.39063,-2.3437528 0.86805,-0.781251 2.86458,-1.2152793 5.98959,-1.302085 0.43403,0 1.6059,-0.086806 3.51563,-0.2604169 1.99653,-0.260417 3.86285,-0.3906255 5.59896,-0.3906255 h 10.6771 l 34.24483,-0.3906255 c 19.35767,0 32.89935,1.4322934 40.62505,4.2968803 7.81251,2.8645872 14.01912,7.7257042 18.61982,14.5833512 4.6007,6.770841 6.90105,14.366337 6.90105,22.786486 0,15.972242 -8.37675,28.168437 -25.13024,36.588586 -2.86459,1.475697 -5.12153,2.777782 -6.77084,3.906255 2.95139,6.250008 7.07465,13.758698 12.3698,22.526068 l 16.53648,28.38545 c 6.59723,10.41668 11.15453,16.97051 13.67189,19.66148 2.51737,2.60417 5.55557,4.77432 9.1146,6.51043 3.64583,1.73611 9.72223,3.38542 18.22919,4.94792 0.0868,0.86806 0.1302,1.56251 0.1302,2.08334 0,0.52083 7.2066,-0.82812 7.1198,-0.0469 -11.89238,0.17361 -33.07469,2.26041 -49.04693,2.26041 -1.12847,0 -2.69098,-0.0868 -4.68751,-0.26041 -6.1632,-11.80557 -13.41147,-24.78302 -21.74481,-38.93234 L 231.20267,98.463553 c -2.60417,-3.645837 -4.77432,-5.902784 -6.51043,-6.770841 -1.64931,-0.954863 -3.86285,-1.432294 -6.64063,-1.432294 l -11.06772,0.130209 -3.64584,-0.130209 c -0.26041,2.777781 -0.39062,8.463552 -0.39062,17.057312 v 44.53131 c -0.0868,1.64931 0.26041,3.94966 1.04166,6.90105 0.69445,1.64931 1.86632,2.99479 3.51563,4.03646 1.73611,0.95486 6.64063,2.43056 14.71356,4.42709 l 5.33855,1.30208 c 0.69445,0.86806 1.04167,2.03994 1.04167,3.51563 -2.34375,0.43403 -3.99306,0.65104 -4.94792,0.65104 -7.81251,0 -13.32467,-0.0868 -16.53648,-0.26041 -1.64931,-0.0868 -2.9948,-0.13021 -4.03647,-0.13021 l -15.45835,-1.23958 -19.56773,1.36979 c -0.78125,0 -4.73091,0.13021 -11.84897,0.39062 l -2.60417,-0.52083 -0.26042,-1.30209 c 0,-0.78125 0.60764,-1.6927 1.82292,-2.73437 z m 48.43756,-85.156359 c 2.34375,0.08681 4.07987,0.130209 5.20834,0.130209 6.25001,0 13.45488,-0.737848 21.61461,-2.213545 5.72917,-1.128473 10.37328,-2.951392 13.93231,-5.468756 3.55903,-2.60417 6.51042,-6.423619 8.85417,-11.458348 2.43056,-5.034728 3.64584,-10.243068 3.64584,-15.625019 0,-5.902785 -1.86632,-12.152792 -5.59896,-18.750022 -2.86459,-5.034729 -7.7257,-9.244803 -14.58335,-12.630224 -6.77085,-3.385421 -14.93058,-5.078131 -24.4792,-5.078131 -2.34375,0 -5.38195,0.130208 -9.1146,0.390625 -0.34722,4.513895 -0.52083,7.986121 -0.52083,10.416679 l 0.65104,24.348988 -0.13021,10.026054 c 0,6.770842 0.17361,15.408005 0.52084,25.91149 z m 194.92211,-71.61467 c -1.82292,-0.260417 -5.38195,-0.564237 -10.67709,-0.91146 L 373.65076,9.6613617 c -1.30209,-0.3472227 -2.08334,-1.3888906 -2.34375,-3.1250038 0.60764,-0.6944453 1.12847,-1.041668 1.5625,-1.041668 3.29861,-0.5208339 7.98612,-0.7812509 14.06252,-0.7812509 0.60764,0 1.30208,0.043403 2.08333,0.1302085 6.25001,0.260417 11.77879,1.0093439 14.42082,0.6557905 l 43.81945,-0.3117333 1.78585,0.9233296 c 0.60764,0.086806 1.7377,-0.046568 3.21339,-0.046568 l 35.49177,-1.0117179 c 14.93057,0 23.70811,0.8325672 30.04492,1.6138182 0.69445,3.4722266 1.04167,11.1545276 1.04167,23.0469036 0,5.121534 -0.17361,9.592025 -0.52084,13.411474 l -3.125,-0.260417 c -0.78125,-1.475696 -1.90973,-4.079866 -3.38542,-7.812509 -3.99306,-10.590291 -7.81251,-17.404535 -11.45835,-20.442734 -2.08333,-1.736113 -5.38195,-2.690975 -9.89584,-2.864586 -18.57641,-0.60764 -30.03476,-0.91146 -34.37504,-0.91146 -4.94793,0 -8.94099,0.173611 -11.97919,0.520834 -3.03819,0.260417 -5.16493,0.737849 -6.38021,1.432294 -0.52083,9.375011 -0.78125,16.753492 -0.78125,22.135443 0,1.996531 0.17361,8.333344 0.52083,19.01044 l 0.65104,30.078162 c 4.86112,-0.434029 8.28994,-0.694446 10.28647,-0.781251 l 25.52087,-0.260417 7.55209,0.130208 c 1.90973,0 4.47049,-0.217014 7.6823,-0.651042 3.55903,-7.291675 5.90279,-15.190991 7.03126,-23.697946 l 1.69271,-0.130208 c 0.43403,0 1.12847,0.0434 2.08334,0.130208 0.17361,4.861117 0.26041,8.246538 0.26041,10.156263 0,2.256947 -0.17361,6.510424 -0.52083,12.760432 -0.26042,6.163202 -0.39063,10.199665 -0.39063,12.10939 0,1.302085 0.13021,5.685772 0.39063,13.151062 l 0.39063,11.58855 -1.95313,0.13021 c -0.69445,0 -1.69271,-0.0434 -2.9948,-0.13021 -1.30208,-11.97918 -2.56076,-19.401064 -3.77604,-22.265651 -1.21528,-2.864587 -1.76369,-5.924943 -3.413,-6.706194 -2.43056,-1.041668 -11.90125,-2.075065 -22.14432,-2.075065 -12.41321,0 -20.42568,0.24367 -27.56775,1.023901 l -0.13021,9.059443 c 0,31.076426 0.17361,50.390686 0.52084,57.942776 0.17361,4.86112 0.86805,7.76911 2.08333,8.72397 1.99653,1.5625 9.54863,2.34375 22.65628,2.34375 20.48613,0 33.63719,-0.86805 39.45317,-2.60416 4.34029,-1.38889 8.50696,-4.34029 12.50002,-8.85418 3.99306,-4.51389 9.46182,-13.93231 16.40627,-28.25525 l 3.77605,-0.1302 c -0.17361,3.90625 -1.17188,11.58855 -2.9948,23.0469 -1.82292,11.45835 -3.29862,19.27086 -4.42709,23.43753 -0.95486,0.17361 -1.6493,0.26041 -2.08333,0.26041 -1.90973,0 -5.46876,-0.26042 -10.6771,-0.78125 l -9.2448,-0.65104 -63.66153,-1.09896 -58.34383,2.53125 -0.26042,-3.25521 c 3.99306,-1.30208 9.93925,-2.25694 17.83857,-2.86458 7.98612,-0.60764 12.50001,-1.73611 13.54168,-3.38542 1.04167,-1.73611 1.5625,-15.53822 1.5625,-41.40631 0,-12.3264 -0.0836,-25.038009 -0.60447,-33.892188 -5.64237,-0.434028 -11.65076,-0.279722 -24.67161,-0.279722 -7.63889,0 -17.27993,0.149514 -24.398,1.191182 -0.69445,0.694445 -2.53953,3.727225 -3.06036,4.855698 -4.86111,11.11113 -10.28647,22.9167 -16.27606,35.41671 -8.50695,17.96877 -12.76043,28.81948 -12.76043,32.55212 0,0.78125 0.21701,1.38889 0.65104,1.82292 0.43403,0.43403 1.25868,0.73785 2.47396,0.91146 2.51737,0.34723 5.72918,0.73785 9.63543,1.17188 5.55556,0.60764 10.54689,1.6059 14.97398,2.99479 0.78125,1.04167 1.17187,1.86633 1.17187,2.47396 l -0.65104,1.56251 c -13.19446,-1.12847 -24.82642,-1.69271 -34.89588,-1.69271 -14.49654,0.78125 -22.39585,1.17187 -23.69794,1.17187 -2.51737,0 -4.5139,-0.39062 -5.98959,-1.17187 -0.43403,-0.26042 -0.65104,-0.60764 -0.65104,-1.04167 0,-0.52083 0.30382,-0.95486 0.91145,-1.30209 0.78125,-0.60764 2.08334,-0.91146 3.90626,-0.91146 5.38195,-0.26041 10.41668,-1.43229 15.10418,-3.51563 1.64931,-0.78125 3.21182,-2.08333 4.68751,-3.90625 3.38542,-4.25348 11.06772,-18.61982 23.0469,-43.09901 l 38.54172,-76.432386 z m -28.12503,73.437589 41.92713,-0.911459 h 3.64584 l 0.13021,-4.036463 -0.13021,-35.41671 c 0,-1.128474 0.0868,-3.472227 0.26042,-7.031259 0.26041,-5.034729 0.39062,-9.548623 0.39062,-13.541683 0,-5.815979 -0.47743,-9.331609 -1.43229,-10.546888 -0.86806,-1.215279 -2.60417,-1.822919 -5.20834,-1.822919 -1.21528,0 -2.25695,0.347223 -3.12501,1.041668 -1.5625,1.302085 -5.81598,8.854177 -12.76043,22.656278 -14.58335,29.166702 -22.35245,44.748318 -23.30732,46.744848 -0.43403,0.781251 -0.65104,1.388891 -0.65104,1.822919 z"
         id="path3"
         style="font-size:266.667px;font-family:Garamond;-inkscape-font-specification:Garamond;text-align:center;text-anchor:middle;fill:#dc143c;fill-opacity:1"
         inkscape:label="PRÆ"
         sodipodi:nodetypes="cscsccsccssscccccscsscccsccccsccccscccccsccccccccscscssccsccccsccccccccsscccsccccscccccccscscccccccsccccccscccccccccscccsccsccccccccccscccccccscccscsccscccccccccscsccccscsccccscsccscscccccccscscccssccccccscscccccccccccccscsccccc" />
    </g>
  </g>
  <metadata
     id="metadata1">
    <rdf:RDF>
      <cc:Work
         rdf:about="">
        <dc:title>PRÆDIVM</dc:title>
      </cc:Work>
    </rdf:RDF>
  </metadata>
</svg>
