<?xml version="1.0" encoding="UTF-8" standalone="no"?>
<!-- Created with Inkscape (http://www.inkscape.org/) -->

<svg
   width="11in"
   height="1.8in"
   viewBox="0 0 1056 172.8"
   version="1.1"
   id="svg1"
   inkscape:version="1.4 (86a8ad7, 2024-10-11)"
   sodipodi:docname="PRÆDIVM2.svg"
   xmlns:inkscape="http://www.inkscape.org/namespaces/inkscape"
   xmlns:sodipodi="http://sodipodi.sourceforge.net/DTD/sodipodi-0.dtd"
   xmlns="http://www.w3.org/2000/svg"
   xmlns:svg="http://www.w3.org/2000/svg"
   xmlns:rdf="http://www.w3.org/1999/02/22-rdf-syntax-ns#"
   xmlns:cc="http://creativecommons.org/ns#"
   xmlns:dc="http://purl.org/dc/elements/1.1/">
  <title
     id="title1">PRÆDIVM</title>
  <sodipodi:namedview
     id="namedview1"
     pagecolor="#505050"
     bordercolor="#eeeeee"
     borderopacity="1"
     inkscape:showpageshadow="0"
     inkscape:pageopacity="0"
     inkscape:pagecheckerboard="0"
     inkscape:deskcolor="#505050"
     inkscape:document-units="px"
     inkscape:zoom="0.70710678"
     inkscape:cx="552.2504"
     inkscape:cy="147.78532"
     inkscape:window-width="1920"
     inkscape:window-height="1009"
     inkscape:window-x="-8"
     inkscape:window-y="201"
     inkscape:window-maximized="1"
     inkscape:current-layer="layer1"
     showgrid="false" />
  <defs
     id="defs1" />
  <g
     inkscape:label="Layer 1"
     inkscape:groupmode="layer"
     id="layer1"
     transform="translate(-2.5156885e-5,-302.83911)">
    <g
       id="text1"
       style="font-size:266.667px;font-family:Garamond;-inkscape-font-specification:Garamond;text-align:center;text-anchor:middle;fill:#ffffff"
       aria-label="PRÆDIVM"
       inkscape:label="PRÆDIVM ]["
       transform="matrix(0.17271685,0,0,0.17271685,404.39677,308.62973)">
      <path
         style="font-weight:bold;font-size:52.0011px;line-height:0;font-family:Garamond;-inkscape-font-specification:'Garamond Bold';text-align:center;letter-spacing:-11.5483px;word-spacing:-0.0086246px;text-anchor:middle;fill:#dc143c;stroke-width:0.195003"
         d="m 597.0003,352.38872 q -1.17298,-0.47017 -3.8437,-0.89927 -1.01718,-0.1417 -1.52657,-0.28872 -0.0826,-0.60856 -0.0876,-1.09096 -0.003,-0.33007 0.0169,-0.81274 1.39617,-0.04 2.43715,-0.0509 7.1853,-0.0752 8.65871,-0.0145 0.0852,0.86246 0.0865,0.9894 l 0.029,7.61747 -0.0314,1.85398 q -0.0211,0.4065 0.12934,5.07716 l 0.007,0.71091 -0.0415,5.73915 q 0.007,0.71092 0.0784,2.64001 l 0.0465,9.29318 0.0381,1.21845 -0.0327,1.72703 0.0739,2.20838 -0.0295,2.03172 q -0.0238,0.1526 0.0683,1.67519 0.0294,0.38058 0.0328,0.71065 0.005,0.45701 -0.0912,0.99126 l -11.22201,0.14292 q -0.0328,-0.71065 -0.0389,-1.29462 -0.004,-0.38084 0.12163,-0.50912 0.15101,-0.12855 0.91111,-0.28886 3.49661,-0.72222 4.22759,-1.23773 0.30255,-0.2063 0.32289,-0.68898 l -0.0669,-3.96053 -0.0262,-4.92588 -0.076,-2.4115 0.0589,-1.65113 -0.0447,-4.26548 0.0175,-3.17426 q -0.009,-0.88864 -0.0435,-1.72624 l -0.0382,-1.21844 -4e-4,-2.46307 -0.10475,-5.15359 q -0.0114,-1.09176 0.0451,-2.9714 0.0148,-1.01586 0.0105,-1.4221 -0.003,-0.33006 -0.0729,-2.10682 z"
         id="path6"
         inkscape:label="]"
         transform="matrix(5.1701167,0,0,3.8105366,-1754.777,-1324.8699)" />
      <path
         style="font-weight:bold;font-size:52.0011px;line-height:0;font-family:Garamond;-inkscape-font-specification:'Garamond Bold';text-align:center;letter-spacing:0px;word-spacing:0px;text-anchor:middle;fill:#dc143c;stroke-width:0.195003"
         d="m 604.37572,349.43601 q 1.4219,-0.0762 10.41037,-0.0762 h 0.91408 v 1.59965 q -0.12695,0.2793 -0.2793,0.30469 -4.54502,1.04104 -5.05284,1.4473 -0.33009,0.2793 -0.33009,1.39651 v 0.22852 q 0.0762,1.85355 0.10157,7.82048 l 0.10156,4.08797 q 0,0.60939 -0.17773,4.79893 l 0.0762,5.73841 -0.0254,1.87894 0.0762,3.75789 -0.0762,2.3106 v 3.17389 l -0.0254,0.76174 q 0,0.25391 0.0508,1.16799 0.0254,0.33009 0.0508,0.96487 0.76174,0.33008 3.47859,0.81251 1.34573,0.25392 1.85356,0.38087 0.10156,0.8633 0.10156,1.21878 0,0.33008 -0.0762,0.73634 l -11.07055,-0.0508 q -0.0508,-0.8633 -0.0508,-1.04104 l 0.0254,-2.53911 -0.0254,-4.29111 0.0762,-2.79303 -0.0762,-2.69146 v -1.29495 l 0.0254,-18.84024 v -2.48834 q 0,-1.01564 -0.0254,-1.67581 -0.0254,-1.06643 -0.0254,-1.19339 l 0.0762,-2.10746 q 0,-0.12696 -0.0762,-1.57426 -0.0254,-0.66017 -0.0254,-1.92972 z"
         id="path7"
         inkscape:label="["
         transform="matrix(5.1701167,0,0,3.8105366,-1754.777,-1324.8699)" />
      <path
         d="m 735.46893,167.99489 c 1.90973,-0.78125 3.86285,-1.25869 5.85938,-1.4323 13.28127,-0.86805 20.87676,-2.43055 22.78649,-4.6875 1.90973,-2.34375 2.86459,-13.49828 2.86459,-33.46358 l -0.13021,-13.6719 v -14.32293 l -0.52084,-15.755227 0.26042,-9.244803 -0.13021,-10.156262 V 53.281207 l -0.26041,-5.338549 0.26041,-6.770841 c 0.0868,-1.562502 0.13021,-3.385421 0.13021,-5.468757 0,-5.468757 -0.26042,-11.241333 -0.78125,-17.317729 -0.34722,-1.215279 -0.82465,-2.387156 -1.43229,-3.51563 -3.21181,-1.649307 -8.42015,-2.734378 -15.62502,-3.255212 -7.11807,-0.607639 -11.15453,-1.258682 -12.10939,-1.9531273 -0.69445,-0.520834 -1.08507,-1.8663218 -1.17188,-4.0364633 h 10.93751 l 34.50526,0.781251 c 8.85417,0 20.65974,-0.260417 35.41671,-0.781251 0,1.3888906 -0.0868,2.6909755 -0.26042,3.9062548 -1.73611,0.4340285 -4.6441,0.9114598 -8.72397,1.4322938 -8.24654,0.954862 -13.28127,1.866321 -15.10419,2.734378 -1.12847,0.434028 -1.95313,1.171876 -2.47396,2.213544 -0.86805,1.562502 -1.38889,4.470492 -1.5625,8.723969 l -0.65104,16.796896 0.52083,57.942779 v 22.916697 c -0.17361,7.20487 -0.26041,12.10939 -0.26041,14.71356 0,9.72223 0.21701,15.92884 0.65104,18.61981 0.52083,2.69097 1.34549,4.6441 2.47396,5.85938 1.21528,1.12847 3.16841,2.03993 5.85938,2.73438 3.99306,0.95487 7.11806,1.4757 9.37501,1.5625 4.86112,0.17361 7.94272,0.86806 9.24481,2.08334 0.26041,1.12847 0.39062,2.08334 0.39062,2.86459 v 1.04166 c -7.89931,0.26042 -13.71529,0.39063 -17.44794,0.39063 -2.17014,0 -6.03299,-0.13021 -11.58855,-0.39063 l -17.96877,0.26042 -30.599,-0.13021 h -2.47396 z M 822.05761,7.0571918 822.96907,4.8436475 c 7.03125,0 14.06251,0.086806 21.09377,0.260417 l 5.00399,0.6187184 c 1.29224,0.1597799 10.159,-0.1317911 11.7215,-0.2185968 5.64236,-0.260417 7.7103,-0.9209556 22.46727,-0.9209556 2.95139,0 5.81598,0.043403 8.59376,0.1302085 2.77778,0 5.46875,0.043403 8.07292,0.1302085 0.52084,0.260417 0.91147,0.6510425 1.17188,1.1718764 l -0.26042,2.0833359 c -0.52083,0.8680566 -1.82292,1.3020849 -3.90625,1.3020849 h -1.04167 c -2.43056,-0.086806 -6.42362,0.1302084 -11.97918,0.6510423 -5.55556,0.434029 -9.2014,1.302085 -10.93751,2.60417 -1.12847,0.954862 -1.69271,2.213544 -1.69271,3.776046 0,3.385421 1.43229,8.463552 4.29688,15.234394 l 19.79169,45.963598 6.90105,15.234393 c 6.68403,16.145852 13.28126,32.638932 19.79169,49.479232 0.69445,1.82291 1.34549,3.47222 1.95313,4.94792 l 8.72396,-21.35419 c 4.5139,-10.76391 9.0712,-22.22226 13.6719,-34.375047 l 8.98438,-24.479196 c 0.17361,-0.520834 0.65105,-2.256947 1.4323,-5.20834 8.42015,-23.0035 12.63022,-37.543448 12.63022,-43.619845 0,-1.302085 -0.60764,-2.60417 -1.82292,-3.906255 -1.12847,-1.38889 -2.99479,-2.517363 -5.59896,-3.38542 -1.04167,-0.347223 -4.4271,-0.868057 -10.15627,-1.5625023 l -9.63543,-1.1718764 c -0.78125,-0.8680566 -1.17187,-1.6059047 -1.17187,-2.2135444 l 0.39062,-1.0416679 38.29846,0.8468114 17.8214,-1.2374369 c 4.67625,-0.3246969 7.89935,0.3038198 9.63545,0.9114594 l 0.1302,1.041668 c 0,0.6944453 -0.2604,1.6059047 -0.7813,2.7343783 -2.0833,0.6944452 -3.993,1.1284738 -5.7291,1.3020848 -7.2917,0.868057 -11.80561,1.909725 -13.54172,3.125004 -1.73611,1.128473 -3.55903,3.602435 -5.46875,7.421884 l -34.24484,84.635521 c -10.67709,25.43406 -18.27259,45.13894 -22.78648,59.11465 l -3.77605,11.32814 c -1.12847,0.69445 -2.08334,1.04167 -2.86459,1.04167 -0.95486,0 -1.99653,-0.0868 -3.125,-0.26042 -10.32987,-26.73614 -18.75002,-47.39589 -25.26045,-61.97924 l -39.8438,-90.364692 c -2.86459,-5.381951 -5.03473,-8.59376 -6.51042,-9.635428 -1.38889,-1.128474 -6.38022,-2.690976 -14.97398,-4.687506 -3.0382,-0.6944452 -4.73091,-1.1284735 -5.07813,-1.3020848 -0.60764,-0.4340283 -1.04167,-1.0850707 -1.30208,-1.9531274 z M 1006.6932,169.16676 c 2.691,-1.82291 7.5521,-3.125 14.5833,-3.90625 5.4688,-0.26042 8.724,-0.73785 9.7657,-1.43229 0.6944,-0.52083 1.2152,-1.17188 1.5625,-1.95313 1.3021,-3.21181 2.2569,-11.93578 2.8646,-26.17191 0.7812,-18.48961 2.0399,-43.099011 3.776,-73.828213 1.3889,-23.437529 2.0833,-38.064283 2.0833,-43.880262 v -3.385421 c -6.25,-1.302085 -16.1458,-2.690975 -29.6875,-4.166671 -0.8681,-1.3020851 -1.3021,-2.3003504 -1.3021,-2.9947957 0,-0.4340283 0.3038,-1.2152792 0.9115,-2.3437528 1.4757,-0.520834 2.6041,-0.781251 3.3854,-0.781251 0.6945,0 2.2136,0.1736113 4.5573,0.520834 4.2535,0.6076396 10.4664,1.8837312 17.9318,1.8837312 2.4305,0 6.4204,-0.4387763 12.1464,-1.4931057 4.1667,-0.260417 6.5104,-0.3906255 7.0312,-0.3906255 1.3889,0 2.9948,0.2170141 4.8177,0.6510424 0.8681,0.8680567 1.5191,1.6927105 1.9532,2.4739614 l 5.4687,12.2395987 36.849,81.51052 15.2344,34.24483 c 12.066,-23.87156 21.441,-45.095545 28.1251,-63.671954 0.434,-1.38889 0.9548,-2.647572 1.5625,-3.776046 0.7812,-1.475696 1.519,-3.125004 2.2135,-4.947923 0.6945,-1.822919 3.5157,-8.767371 8.4636,-20.833358 1.9965,-4.861117 3.6024,-9.027789 4.8177,-12.500016 4.9479,-13.888906 7.8559,-21.8316234 8.7239,-23.8281536 1.6493,-0.6076397 3.0816,-0.9114595 4.2969,-0.9114595 1.3889,0 3.1685,0.086806 5.3386,0.260417 4.8611,0.260417 12.7604,0.3906255 23.6979,0.3906255 6.7709,0 12.3264,-0.086806 16.6667,-0.260417 0.1736,0.9548623 0.2604,1.6493076 0.2604,2.0833359 0,0.6076396 -0.1302,1.4322935 -0.3906,2.4739617 -2.7778,1.475696 -6.1198,2.30035 -10.0261,2.473961 -7.7257,0.434028 -12.6302,1.041668 -14.7135,1.822919 -2.0833,0.781251 -3.4288,1.779516 -4.0365,2.994795 -0.5208,1.215279 -0.9982,5.20834 -1.4323,11.979182 l 0.1302,5.98959 -0.1302,6.250008 c 0,13.020849 0.3472,34.895877 1.0417,65.625082 l -0.1302,25.52086 0.1302,16.40627 c 0,6.42362 0.3038,10.24307 0.9114,11.45835 0.6077,1.12847 2.3438,2.21354 5.2084,3.25521 4.6875,1.5625 12.3264,3.16841 22.9167,4.81772 0.6076,0.43403 0.9114,0.99826 0.9114,1.69271 0,0.78125 -0.043,1.6493 -0.1302,2.60417 h -5.9896 c -5.1215,0 -10.6771,-0.17361 -16.6666,-0.52084 -5.9896,-0.26041 -9.2014,-0.39062 -9.6355,-0.39062 -17.7951,0 -29.6007,0.17361 -35.4167,0.52083 -3.559,0.26042 -5.8159,0.39063 -6.7708,0.39063 -0.6077,0 -1.2587,-0.17361 -1.9532,-0.52084 v -1.69271 c 0,-0.78125 0.1302,-1.6059 0.3907,-2.47396 2.8646,-1.21528 6.7708,-2.03993 11.7187,-2.47396 5.4688,-1.47569 9.4619,-3.0382 11.9792,-4.68751 0.7813,-3.29861 1.1719,-10.02605 1.1719,-20.18231 l -0.3906,-26.30212 c 0,-2.86459 0.1302,-8.20313 0.3906,-16.015643 0.3472,-7.812509 0.5208,-20.529539 0.5208,-38.151088 0,-13.975711 -0.3472,-24.566002 -1.0416,-31.770872 -1.4757,3.038198 -4.3837,9.635428 -8.724,19.791691 l -1.9531,4.947923 -0.2605,0.781251 -19.2708,45.572968 -6.9011,17.57815 -8.9843,21.35419 c -3.9063,9.80904 -7.2483,18.48961 -10.0261,26.0417 -1.2153,3.47223 -2.2135,6.20661 -2.9948,8.20314 l -2.9948,-0.13021 c -9.809,-28.64587 -21.5278,-58.02958 -35.1563,-88.151151 -13.5417,-30.121565 -23.0469,-50.000061 -28.5156,-59.63549 -0.6945,3.732643 -1.4757,14.583351 -2.3438,32.552123 -1.1285,21.875027 -1.6927,45.963598 -1.6927,72.265718 0,8.24653 0.6076,17.53474 1.8229,27.86461 0.3472,2.95139 1.6059,5.16494 3.7761,6.64064 2.1701,1.38889 7.7691,2.17014 16.7969,2.34375 3.4722,0 6.7708,0.26042 9.8958,0.78125 0.6077,1.30209 0.9115,2.25695 0.9115,2.86459 0,0.43403 -0.8358,1.26026 -1.2698,2.30193 l -39.0806,-2.49295 c -4.7192,-0.0884 -8.3476,1.18928 -14.5976,1.62331 -3.4723,0.26042 -8.4636,0.43403 -14.974,0.52083 z"
         id="path5"
         inkscape:label="IVM"
         style="font-size:266.667px;font-family:Garamond;-inkscape-font-specification:Garamond;text-align:center;text-anchor:middle;fill:#dc143c;fill-opacity:1"
         sodipodi:nodetypes="ccccccccccccsccccccccccccccccscccccscsccccccccscsccccscccscccccccccscscccccscccccccccscccccccccccccsccscscscscccccccscccscscsccsccccccccccscscscscsccccccscccccccccccccsscccsccccc" />
      <path
         style="font-size:266.667px;font-family:Garamond;-inkscape-font-specification:Garamond;text-align:center;letter-spacing:-18px;text-anchor:middle;fill:#dc143c;fill-opacity:1"
         d="m 545.39579,169.55739 q 4.81771,-2.08334 11.19793,-2.73438 9.2448,-1.04167 13.8021,-4.42709 3.51563,-7.16146 3.51563,-36.45837 V 105.3646 l 0.26041,-12.369803 -0.26041,-9.114595 0.26041,-16.796895 -0.39062,-42.31776 q 0,-7.161467 -2.08334,-9.375012 -2.99479,-3.255212 -15.88543,-5.9895903 -5.33855,-1.1718764 -6.51043,-2.0833359 -1.17187,-1.0416679 -1.43229,-3.7760462 2.99479,-0.6510425 4.16667,-0.6510425 h 9.2448 l 4.81772,-0.1302085 q 4.81771,0 10.67709,1.0416679 11.97919,0.781251 24.60941,0.781251 3.64584,0 10.41668,-0.3906255 17.96877,-1.0416679 25.78128,-1.0416679 15.75523,0 29.68754,3.1250038 14.06251,3.1250038 28.90628,11.5885561 9.2448,5.338548 18.88023,16.927104 9.76564,11.458347 14.71356,25.130239 5.07813,13.541683 5.07813,30.598995 0,15.234395 -5.59896,30.208375 -5.46876,14.97397 -15.3646,26.04169 -9.89585,10.93752 -20.05211,16.53648 -10.15626,5.46876 -30.98962,9.50522 -8.59376,1.5625 -30.85941,1.5625 -14.71356,0 -23.95837,-0.91146 -3.64584,-0.52083 -7.81251,-0.52083 -0.65104,0 -1.43229,0.13021 l -53.12507,0.91146 -0.26041,-1.04167 q -0.26042,-0.65104 -0.26042,-1.43229 z m 66.27612,-5.07813 q 9.89585,3.38542 20.05211,3.38542 13.15106,0 25.78128,-4.03646 12.63022,-4.16668 22.26565,-11.58856 9.76564,-7.55209 16.01565,-16.9271 6.25,-9.50522 8.85417,-17.05732 3.64584,-11.06772 3.64584,-28.776073 0,-16.927104 -7.16147,-34.375042 Q 696.17722,42.994736 683.67721,31.927014 671.3074,20.859292 654.3803,15.781161 q -16.92711,-5.20834 -36.58859,-5.20834 -13.54168,0 -20.05211,2.994795 -0.78125,0.781251 -1.5625,1.822919 -0.78125,3.255213 -0.78125,5.989591 0,1.69271 0.13021,4.036463 0.39062,15.104185 0.39062,24.21878 l -0.13021,29.557328 q 0,65.104243 2.34376,72.526133 2.47396,7.29167 13.54168,12.76043 z"
         id="path4"
         inkscape:label="D" />
      <path
         d="m 3.5982244,5.8853154 c 1.5625019,-0.260417 2.560767,-0.3906255 2.9947953,-0.3906255 2.9513922,0 7.8125093,0.1736113 14.5833513,0.520834 3.559032,0.086806 5.98959,0.1302085 7.291675,0.1302085 1.909725,0 5.946188,-0.1736113 12.10939,-0.520834 L 62.71288,4.3228135 c 5.815979,-0.5208339 12.586821,-0.7812509 20.312525,-0.7812509 13.62849,0 24.479195,1.9531274 32.552125,5.8593821 8.07293,3.8194493 14.27953,9.8524423 18.61981,18.0989803 4.42709,8.246538 6.64064,16.449673 6.64064,24.609405 0,13.628489 -4.77431,25.390656 -14.32294,35.286502 -9.54862,9.895845 -22.39586,14.843768 -38.541713,14.843768 -4.513894,0 -8.28994,-0.43403 -11.328138,-1.30209 -3.038199,-0.954859 -6.510425,-2.734374 -10.41668,-5.338543 -1.649307,-1.128474 -2.647572,-2.300351 -2.994795,-3.51563 0.347223,-0.607639 0.824654,-1.041668 1.432293,-1.302085 1.215279,0 2.473962,0.260417 3.776047,0.781251 2.951392,1.041668 6.684035,1.562502 11.19793,1.562502 6.857647,0 13.324669,-1.69271 19.401065,-5.078131 6.163201,-3.385421 10.807301,-8.203135 13.932311,-14.453143 3.125,-6.250007 4.6875,-12.847237 4.6875,-19.79169 0,-6.770842 -1.64931,-13.32467 -4.94792,-19.661483 -3.29861,-6.423619 -7.6389,-11.545153 -13.020848,-15.364602 -3.038199,-2.170141 -7.725704,-3.99306 -14.062517,-5.468757 -6.250008,-1.475696 -11.111125,-2.213544 -14.583352,-2.213544 -10.763902,0 -17.144118,0.781251 -19.140648,2.343753 l -0.130208,1.822919 0.520834,14.713559 -0.130209,2.60417 c -0.173611,2.343753 -0.260417,5.946188 -0.260417,10.807305 0,17.708355 0.260417,28.732674 0.781251,33.072957 v 7.291676 l 1.69271,59.505276 c 0,0.86806 -0.130208,2.47397 -0.390625,4.81772 -0.173611,2.34375 -0.260417,4.38369 -0.260417,6.1198 0,4.16667 0.347223,7.33508 1.041668,9.50522 2.083336,0.60764 8.159732,2.03993 18.229189,4.29688 4.687505,1.12847 7.248272,1.77952 7.682301,1.95313 0.694445,0.26041 1.302085,0.82465 1.822919,1.69271 -0.347223,1.30208 -0.824654,2.12673 -1.432294,2.47396 -0.520834,0.43403 -1.605905,0.65104 -3.255212,0.65104 -1.041668,0 -3.472227,-0.21701 -7.291676,-0.65104 -7.465287,-0.78125 -16.824669,-2.17188 -21.078146,-2.17188 l -17.916695,1.91146 -15.171891,-0.39063 c -0.868057,0 -3.385421,0.0868 -7.5520929,0.26042 L 8.6763556,170.33864 25.60346,167.08343 c 2.777781,-0.78125 4.470491,-1.5625 5.078131,-2.34375 0.868057,-1.21528 1.302085,-3.60244 1.302085,-7.16147 0,-0.78125 0.0434,-2.47396 0.130208,-5.07813 0.08681,-1.82292 0.130209,-4.34028 0.130209,-7.55209 0,-10.24307 -0.434028,-32.0747 -1.302085,-65.494876 C 30.594785,63.828095 30.421174,47.942658 30.421174,31.796805 v -2.213544 c 0,-6.250007 -0.954862,-10.199665 -2.864587,-11.848973 C 24.344778,14.869701 16.315254,12.525949 3.4680159,10.70303 3.0339876,9.7481675 2.8169734,8.9669164 2.8169734,8.3592768 c 0,-0.6944453 0.260417,-1.5190991 0.781251,-2.4739614 z M 155.16091,168.25531 c 12.67363,-1.4757 19.83509,-2.51737 21.4844,-3.12501 1.12847,-0.43403 2.17014,-1.73611 3.125,-3.90625 v -1.4323 c 0,-2.17014 0.34722,-10.02605 1.04167,-23.56773 0.17361,-3.81945 0.26042,-7.5521 0.26042,-11.19793 l -0.39063,-15.49481 0.26042,-17.578151 -0.13021,-32.682332 0.13021,-23.437528 c 0.0868,-9.895845 -0.69444,-15.928839 -2.34375,-18.098981 -1.5625,-2.170141 -5.68577,-3.68924 -12.36981,-4.557297 -6.68403,-0.954862 -10.37327,-1.649307 -11.06772,-2.083336 -0.69445,-0.434028 -1.04167,-1.1284733 -1.04167,-2.0833358 0,-0.6076396 0.13021,-1.3888905 0.39063,-2.3437528 0.86805,-0.781251 2.86458,-1.2152793 5.98959,-1.302085 0.43403,0 1.6059,-0.086806 3.51563,-0.2604169 1.99653,-0.260417 3.86285,-0.3906255 5.59896,-0.3906255 h 10.6771 l 34.24483,-0.3906255 c 19.35767,0 32.89935,1.4322934 40.62505,4.2968803 7.81251,2.8645872 14.01912,7.7257042 18.61982,14.5833512 4.6007,6.770841 6.90105,14.366337 6.90105,22.786486 0,15.972242 -8.37675,28.168437 -25.13024,36.588586 -2.86459,1.475697 -5.12153,2.777782 -6.77084,3.906255 2.95139,6.250008 7.07465,13.758698 12.3698,22.526068 l 16.53648,28.38545 c 6.59723,10.41668 11.15453,16.97051 13.67189,19.66148 2.51737,2.60417 5.55557,4.77432 9.1146,6.51043 3.64583,1.73611 9.72223,3.38542 18.22919,4.94792 0.0868,0.86806 0.1302,1.56251 0.1302,2.08334 0,0.52083 7.2066,-0.82812 7.1198,-0.0469 -11.89238,0.17361 -33.07469,2.26041 -49.04693,2.26041 -1.12847,0 -2.69098,-0.0868 -4.68751,-0.26041 -6.1632,-11.80557 -13.41147,-24.78302 -21.74481,-38.93234 L 231.20267,98.463553 c -2.60417,-3.645837 -4.77432,-5.902784 -6.51043,-6.770841 -1.64931,-0.954863 -3.86285,-1.432294 -6.64063,-1.432294 l -11.06772,0.130209 -3.64584,-0.130209 c -0.26041,2.777781 -0.39062,8.463552 -0.39062,17.057312 v 44.53131 c -0.0868,1.64931 0.26041,3.94966 1.04166,6.90105 0.69445,1.64931 1.86632,2.99479 3.51563,4.03646 1.73611,0.95486 6.64063,2.43056 14.71356,4.42709 l 5.33855,1.30208 c 0.69445,0.86806 1.04167,2.03994 1.04167,3.51563 -2.34375,0.43403 -3.99306,0.65104 -4.94792,0.65104 -7.81251,0 -13.32467,-0.0868 -16.53648,-0.26041 -1.64931,-0.0868 -2.9948,-0.13021 -4.03647,-0.13021 l -15.45835,-1.23958 -19.56773,1.36979 c -0.78125,0 -4.73091,0.13021 -11.84897,0.39062 l -2.60417,-0.52083 -0.26042,-1.30209 c 0,-0.78125 0.60764,-1.6927 1.82292,-2.73437 z m 48.43756,-85.156359 c 2.34375,0.08681 4.07987,0.130209 5.20834,0.130209 6.25001,0 13.45488,-0.737848 21.61461,-2.213545 5.72917,-1.128473 10.37328,-2.951392 13.93231,-5.468756 3.55903,-2.60417 6.51042,-6.423619 8.85417,-11.458348 2.43056,-5.034728 3.64584,-10.243068 3.64584,-15.625019 0,-5.902785 -1.86632,-12.152792 -5.59896,-18.750022 -2.86459,-5.034729 -7.7257,-9.244803 -14.58335,-12.630224 -6.77085,-3.385421 -14.93058,-5.078131 -24.4792,-5.078131 -2.34375,0 -5.38195,0.130208 -9.1146,0.390625 -0.34722,4.513895 -0.52083,7.986121 -0.52083,10.416679 l 0.65104,24.348988 -0.13021,10.026054 c 0,6.770842 0.17361,15.408005 0.52084,25.91149 z m 194.92211,-71.61467 c -1.82292,-0.260417 -5.38195,-0.564237 -10.67709,-0.91146 L 373.65076,9.6613617 c -1.30209,-0.3472227 -2.08334,-1.3888906 -2.34375,-3.1250038 0.60764,-0.6944453 1.12847,-1.041668 1.5625,-1.041668 3.29861,-0.5208339 7.98612,-0.7812509 14.06252,-0.7812509 0.60764,0 1.30208,0.043403 2.08333,0.1302085 6.25001,0.260417 11.77879,1.0093439 14.42082,0.6557905 l 43.81945,-0.3117333 1.78585,0.9233296 c 0.60764,0.086806 1.7377,-0.046568 3.21339,-0.046568 l 35.49177,-1.0117179 c 14.93057,0 23.70811,0.8325672 30.04492,1.6138182 0.69445,3.4722264 1.04167,11.1545274 1.04167,23.0469034 0,5.121534 -0.17361,9.592025 -0.52084,13.411474 l -3.125,-0.260417 c -0.78125,-1.475696 -1.90973,-4.079866 -3.38542,-7.812509 -3.99306,-10.590291 -7.81251,-17.404535 -11.45835,-20.442734 -2.08333,-1.736113 -5.38195,-2.690975 -9.89584,-2.864586 -18.57641,-0.60764 -30.03476,-0.91146 -34.37504,-0.91146 -4.94793,0 -8.94099,0.173611 -11.97919,0.520834 -3.03819,0.260417 -5.16493,0.737849 -6.38021,1.432294 -0.52083,9.375011 -0.78125,16.753492 -0.78125,22.135443 0,1.996531 0.17361,8.333344 0.52083,19.01044 l 0.65104,30.078162 c 4.86112,-0.434029 8.28994,-0.694446 10.28647,-0.781251 l 25.52087,-0.260417 7.55209,0.130208 c 1.90973,0 4.47049,-0.217014 7.6823,-0.651042 3.55903,-7.291675 5.90279,-15.190991 7.03126,-23.697946 l 1.69271,-0.130208 c 0.43403,0 1.12847,0.0434 2.08334,0.130208 0.17361,4.861117 0.26041,8.246538 0.26041,10.156263 0,2.256947 -0.17361,6.510424 -0.52083,12.760432 -0.26042,6.163202 -0.39063,10.199665 -0.39063,12.10939 0,1.302085 0.13021,5.685772 0.39063,13.151062 l 0.39063,11.58855 -1.95313,0.13021 c -0.69445,0 -1.69271,-0.0434 -2.9948,-0.13021 -1.30208,-11.97918 -2.56076,-19.401064 -3.77604,-22.265651 -1.21528,-2.864587 -1.76369,-5.924943 -3.413,-6.706194 -2.43056,-1.041668 -11.90125,-2.075065 -22.14432,-2.075065 -12.41321,0 -20.42568,0.24367 -27.56775,1.023901 l -0.13021,9.059443 c 0,31.076426 0.17361,50.390686 0.52084,57.942776 0.17361,4.86112 0.86805,7.76911 2.08333,8.72397 1.99653,1.5625 9.54863,2.34375 22.65628,2.34375 20.48613,0 33.63719,-0.86805 39.45317,-2.60416 4.34029,-1.38889 8.50696,-4.34029 12.50002,-8.85418 3.99306,-4.51389 9.46182,-13.93231 16.40627,-28.25525 l 3.77605,-0.1302 c -0.17361,3.90625 -1.17188,11.58855 -2.9948,23.0469 -1.82292,11.45835 -3.29862,19.27086 -4.42709,23.43753 -0.95486,0.17361 -1.6493,0.26041 -2.08333,0.26041 -1.90973,0 -5.46876,-0.26042 -10.6771,-0.78125 l -9.2448,-0.65104 -63.66153,-1.09896 -58.34383,2.53125 -0.26042,-3.25521 c 3.99306,-1.30208 9.93925,-2.25694 17.83857,-2.86458 7.98612,-0.60764 12.50001,-1.73611 13.54168,-3.38542 1.04167,-1.73611 1.5625,-15.53822 1.5625,-41.40631 0,-12.3264 -0.0836,-25.038009 -0.60447,-33.892188 -5.64237,-0.434028 -11.65076,-0.279722 -24.67161,-0.279722 -7.63889,0 -17.27993,0.149514 -24.398,1.191182 -0.69445,0.694445 -2.53953,3.727225 -3.06036,4.855698 -4.86111,11.11113 -10.28647,22.9167 -16.27606,35.41671 -8.50695,17.96877 -12.76043,28.81948 -12.76043,32.55212 0,0.78125 0.21701,1.38889 0.65104,1.82292 0.43403,0.43403 1.25868,0.73785 2.47396,0.91146 2.51737,0.34723 5.72918,0.73785 9.63543,1.17188 5.55556,0.60764 10.54689,1.6059 14.97398,2.99479 0.78125,1.04167 1.17187,1.86633 1.17187,2.47396 l -0.65104,1.56251 c -13.19446,-1.12847 -24.82642,-1.69271 -34.89588,-1.69271 -14.49654,0.78125 -22.39585,1.17187 -23.69794,1.17187 -2.51737,0 -4.5139,-0.39062 -5.98959,-1.17187 -0.43403,-0.26042 -0.65104,-0.60764 -0.65104,-1.04167 0,-0.52083 0.30382,-0.95486 0.91145,-1.30209 0.78125,-0.60764 2.08334,-0.91146 3.90626,-0.91146 5.38195,-0.26041 10.41668,-1.43229 15.10418,-3.51563 1.64931,-0.78125 3.21182,-2.08333 4.68751,-3.90625 3.38542,-4.25348 11.06772,-18.61982 23.0469,-43.09901 l 38.54172,-76.432386 z m -28.12503,73.437589 41.92713,-0.911459 h 3.64584 l 0.13021,-4.036463 -0.13021,-35.41671 c 0,-1.128474 0.0868,-3.472227 0.26042,-7.031259 0.26041,-5.034729 0.39062,-9.548623 0.39062,-13.541683 0,-5.815979 -0.47743,-9.331609 -1.43229,-10.546888 -0.86806,-1.215279 -2.60417,-1.822919 -5.20834,-1.822919 -1.21528,0 -2.25695,0.347223 -3.12501,1.041668 -1.5625,1.302085 -5.81598,8.854177 -12.76043,22.656278 -14.58335,29.166702 -22.35245,44.748318 -23.30732,46.744848 -0.43403,0.781251 -0.65104,1.388891 -0.65104,1.822919 z"
         id="path3"
         style="font-size:266.667px;font-family:Garamond;-inkscape-font-specification:Garamond;text-align:center;text-anchor:middle;fill:#dc143c;fill-opacity:1"
         inkscape:label="PRÆ"
         sodipodi:nodetypes="cscsccsccssscccccscsscccsccccsccccscccccsccccccccscscssccsccccsccccccccsscccsccccscccccccscscccccccsccccccscccccccccscccsccsccccccccccscccccccscccscsccscccccccccscsccccscsccccscsccscscccccccscscccssccccccscscccccccccccccscsccccc" />
    </g>
    <g
       id="text4"
       style="font-weight:bold;font-size:141.158px;line-height:0;font-family:Garamond;-inkscape-font-specification:'Garamond Bold';text-align:center;letter-spacing:0px;word-spacing:0px;text-anchor:middle;fill:#dc143c;stroke-width:0.705791"
       aria-label="ALAS, BABYLON"
       inkscape:label="ALAS, BABYLON">
      <path
         style="letter-spacing:4.60863px"
         d="m 3.2785505,443.59385 0.1378496,-4.68689 q 1.3095714,-0.41354 4.6179621,-1.03387 5.3072098,-1.03387 6.4100068,-1.86097 1.171722,-0.8271 2.825917,-3.99764 l 13.922811,-36.46122 16.33518,-42.87123 q 2.274518,0.0689 4.342262,0.0689 h 3.101617 l 0.620323,1.24064 11.992916,28.39702 q 4.066564,9.02915 7.30603,17.57583 3.239466,8.47775 5.582909,13.85388 1.378497,3.23947 3.790865,9.7184 1.240646,3.51517 3.790864,8.82238 1.378496,2.89484 2.067744,3.37731 1.240647,1.03387 3.997639,1.3785 2.825917,0.34462 6.065384,1.58527 0.34462,2.27452 0.34462,3.37732 0,0.48247 -0.0689,1.51634 -5.100437,0 -11.234745,-0.48247 -6.134308,-0.48248 -11.027969,-0.48248 -5.44506,0 -7.857428,0.13785 l -11.717217,0.62033 -3.377316,0.13785 q 0,-2.41237 0.206774,-4.61797 l 7.650654,-1.65419 q 3.44624,-0.89602 3.997639,-1.3785 0.689248,-0.68925 0.689248,-1.58527 0,-0.89602 -0.344624,-1.86097 l -2.756992,-6.75463 -5.44506,-13.50926 -26.329276,-0.0689 q -1.447421,3.30839 -5.996459,16.19733 -1.309571,3.65302 -1.309571,4.96259 0,1.79204 0.964947,2.55022 1.585271,1.30957 6.065383,1.86097 0.620324,0.13785 4.893662,0.75817 0.06892,2.48129 0.06892,3.44624 0,0.75817 -0.137849,1.58527 -4.273338,0 -20.401743,-1.17172 l -2.825917,0.48247 q -5.1004359,0.8271 -9.7183979,0.8271 z M 35.67321,404.85811 q 16.128405,0.20677 19.023247,0.20677 l 1.72312,-0.0689 q -2.067744,-6.13431 -5.376135,-14.26744 -3.308391,-8.20205 -5.376135,-12.47539 z"
         id="path1"
         inkscape:label="A" />
      <path
         style="letter-spacing:2.30432px"
         d="m 105.48471,437.94202 q 2.13666,-0.62033 5.99645,-1.17173 3.92872,-0.62032 4.61797,-0.62032 2.68806,-0.0689 3.58409,-0.89602 0.41354,-1.6542 0.41354,-2.75699 l -0.13785,-8.82238 0.41355,-8.96022 v -5.72076 l 0.0689,-6.75463 -0.13785,-7.16818 0.2757,-15.37024 0.0689,-6.9614 v -0.96495 q -0.48247,-7.2371 -0.96494,-7.92635 -0.41355,-0.75817 -3.92872,-1.86097 -0.34462,-0.13785 -2.61914,-1.03387 -1.72312,-0.68925 -3.10162,-0.96495 -2.41237,-0.62032 -3.37731,-1.44742 -0.13785,-1.79205 -0.13785,-2.75699 0,-0.5514 0.0689,-1.6542 0.62033,-0.34462 1.30957,-0.34462 1.6542,0 11.99292,0.5514 l 9.85625,-0.0689 7.30603,0.13785 q 4.75581,0 12.19969,-0.62032 2.20559,-0.20678 2.55022,-0.20678 1.03387,0 1.44742,0.5514 0.55139,0.75817 0.55139,2.75699 0,1.58527 -0.75817,2.41237 -0.41355,0.48248 -3.03269,0.8271 l -8.54668,1.99882 q -0.34462,0.13785 -1.17172,0.5514 -0.2757,0.48247 -0.41355,0.8271 l -0.0689,1.92989 -0.20678,4.34226 v 1.24065 l 0.0689,0.75817 q 0,0.34463 -0.20678,3.79087 -0.0689,0.89602 -0.0689,1.79204 0,1.1028 0.13785,3.72194 0.20677,4.13549 0.20677,7.23711 0,3.58409 -0.20677,8.20205 -0.0689,1.72312 -0.0689,4.48011 l -0.27569,32.67036 q 0,2.06774 0.68924,2.68807 l 6.54786,0.2757 4.06656,-0.0689 4.34227,0.13785 q 11.09689,0 17.43797,-2.55022 4.75581,-1.92989 6.20324,-3.85979 2.34344,-2.06774 3.79086,-4.48011 1.51635,-2.41237 3.37732,-7.99528 h 2.20559 q 1.65419,0 3.72194,0.2757 v 1.9299 q 0,4.96258 -1.24065,17.36905 -0.48247,4.96258 -0.96494,6.06538 -1.58528,0.2757 -1.99882,0.2757 h -2.55022 l -3.58409,0.0689 q -0.62033,0 -8.20205,-0.5514 -1.3785,-0.0689 -13.16464,-0.48248 -11.78614,-0.41355 -23.08981,-0.41355 l -14.06066,0.41355 q -8.13313,0.20678 -15.23239,0.75818 h -1.03387 q -0.41355,0 -1.30957,-0.0689 -0.13785,-0.75817 -0.13785,-1.30957 0,-2.89484 0.48248,-4.20441 z"
         id="path2"
         inkscape:label="L" />
      <path
         style="letter-spacing:-1.15216px"
         d="m 192.49762,443.59385 0.13785,-4.68689 q 1.30957,-0.41354 4.61796,-1.03387 5.30721,-1.03387 6.41001,-1.86097 1.17172,-0.8271 2.82592,-3.99764 l 13.92281,-36.46122 16.33518,-42.87123 q 2.27452,0.0689 4.34226,0.0689 h 3.10162 l 0.62032,1.24064 11.99292,28.39702 q 4.06656,9.02915 7.30603,17.57583 3.23946,8.47775 5.5829,13.85388 1.3785,3.23947 3.79087,9.7184 1.24065,3.51517 3.79086,8.82238 1.3785,2.89484 2.06775,3.37731 1.24064,1.03387 3.99764,1.3785 2.82591,0.34462 6.06538,1.58527 0.34462,2.27452 0.34462,3.37732 0,0.48247 -0.0689,1.51634 -5.10044,0 -11.23474,-0.48247 -6.13431,-0.48248 -11.02797,-0.48248 -5.44506,0 -7.85743,0.13785 l -11.71722,0.62033 -3.37731,0.13785 q 0,-2.41237 0.20677,-4.61797 l 7.65065,-1.65419 q 3.44624,-0.89602 3.99764,-1.3785 0.68925,-0.68925 0.68925,-1.58527 0,-0.89602 -0.34462,-1.86097 l -2.757,-6.75463 -5.44506,-13.50926 -26.32927,-0.0689 q -1.44742,3.30839 -5.99646,16.19733 -1.30957,3.65302 -1.30957,4.96259 0,1.79204 0.96495,2.55022 1.58527,1.30957 6.06538,1.86097 0.62032,0.13785 4.89366,0.75817 0.0689,2.48129 0.0689,3.44624 0,0.75817 -0.13784,1.58527 -4.27334,0 -20.40175,-1.17172 l -2.82591,0.48247 q -5.10044,0.8271 -9.7184,0.8271 z m 32.39466,-38.73574 q 16.12841,0.20677 19.02325,0.20677 l 1.72312,-0.0689 q -2.06775,-6.13431 -5.37614,-14.26744 -3.30839,-8.20205 -5.37613,-12.47539 z"
         id="path8"
         inkscape:label="A2" />
      <path
         style="letter-spacing:-6.42904px"
         d="m 344.0139,356.40397 q 0.68925,2.34344 1.24065,7.09926 0.82709,7.09925 0.82709,11.02796 0,1.24065 -0.27569,2.68807 l -0.68925,0.20678 -4.96259,-0.34463 -0.8271,-0.13785 q -3.03269,-9.09807 -6.06538,-12.33754 -5.23828,-5.51398 -12.33754,-5.51398 -6.75463,0 -10.75227,3.58409 -3.92871,3.51516 -3.92871,8.75345 0,4.41119 3.92871,8.47775 3.85979,4.06656 16.4041,7.7885 4.20442,1.24065 10.13195,3.99764 5.99646,2.75699 9.09808,5.99646 4.13548,4.27334 5.65183,8.27098 1.58527,3.92871 1.58527,9.85624 0,6.47894 -2.41237,12.75109 -1.30957,3.30839 -4.20441,6.27216 -2.06775,2.06774 -6.41001,4.89366 -4.34226,2.75699 -9.02915,3.99764 -4.61796,1.24065 -11.92399,1.24065 -4.82474,0 -11.51044,-1.3785 l -8.27098,-2.41237 q -3.44624,-0.96494 -4.34226,-1.72312 -0.34463,-0.2757 -0.62033,-1.30957 v -0.75817 q 0,-0.75817 -0.34462,-9.4427 -0.13785,-4.48011 -0.13785,-6.34108 v -2.61915 l 6.34108,-0.13784 q 3.30839,7.65065 4.27334,9.23592 2.13667,3.51516 4.68689,5.72076 2.61914,2.13667 6.20323,3.44624 3.58409,1.24065 7.7885,1.24065 3.72194,0 8.20206,-1.58528 4.48011,-1.58527 7.16818,-5.16936 2.75699,-3.65301 2.75699,-7.7885 0,-5.10043 -4.75581,-9.4427 -2.89485,-2.68807 -15.57701,-7.16818 -12.68216,-4.48011 -17.57583,-7.99528 -4.89366,-3.51516 -7.71957,-9.37377 -2.82592,-5.92753 -2.82592,-11.37259 0,-10.95905 7.85743,-18.6097 7.85743,-7.65065 23.15873,-7.65065 3.30839,0 9.78732,1.17172 3.92872,0.68925 10.40765,2.89484 z"
         id="path9"
         inkscape:label="S" />
      <path
         style="letter-spacing:-16.1302px"
         d="m 357.9866,464.40914 q 0.13785,-0.5514 0.48248,-0.8271 0.34462,-0.27569 2.34344,-1.30957 3.92871,-1.92989 6.61678,-5.51398 2.68807,-3.58409 2.68807,-6.96141 0,-1.92989 -0.8271,-3.03269 -0.89602,-1.10279 -4.89366,-3.30839 -3.99764,-2.20559 -5.30721,-3.99764 -1.30957,-1.86097 -1.30957,-4.96258 0,-3.92872 2.82591,-6.61679 2.89485,-2.75699 7.65066,-2.75699 5.51398,0 9.92517,4.96259 4.48011,4.89366 4.48011,12.26861 0,4.20442 -1.44742,8.68453 -1.37849,4.48011 -3.51516,7.30603 -2.06775,2.82592 -6.61678,6.47893 -0.89603,0.68925 -7.37496,4.13549 -0.89602,0.41355 -1.79204,0.41355 -1.03388,0 -1.86097,-0.75817 -0.75818,-0.75818 -2.06775,-4.20442 z"
         id="path10"
         inkscape:label="," />
      <path
         style="letter-spacing:-13.8259px"
         d="m 412.29757,444.21417 0.13785,-5.51398 q 1.6542,-0.41355 3.99764,-0.75817 4.48011,-0.62033 7.30603,-1.79205 0.96495,-1.58527 1.24065,-3.03269 0.55139,-3.85979 0.55139,-11.37259 l -0.13785,-29.29305 q 0,-4.54903 -0.48247,-23.77905 -0.13785,-5.16936 -0.68925,-6.41001 -0.20677,-0.41355 -0.68924,-0.68925 -1.1028,-0.75817 -4.13549,-0.89602 -1.30957,-0.0689 -6.75463,-0.75817 l -0.20678,-4.89367 15.43916,-0.34462 22.53841,-0.75817 2.68807,-0.0689 q 0.82709,-0.0689 1.65419,-0.0689 0.68925,0 3.65302,0.0689 h 4.41119 q 5.23828,-0.0689 11.37259,1.58527 2.13667,0.5514 5.65183,2.34345 3.51517,1.72312 6.06539,4.48011 2.61914,2.68807 3.85978,6.06538 1.24065,3.37732 1.24065,7.16818 0,4.20441 -1.86097,7.58173 -1.86097,3.30839 -5.65183,6.13431 -1.9299,1.37849 -8.8913,4.54904 10.40764,2.34344 15.8527,8.6156 5.44506,6.20323 5.44506,13.85388 0,4.54904 -1.72312,9.51163 -1.24064,3.72194 -4.20441,6.89248 -3.92871,4.20441 -8.3399,6.34108 -4.34227,2.13667 -12.06184,3.51516 -3.85979,0.68925 -11.71722,0.68925 l -11.71722,-0.2757 q -7.44388,0 -17.71367,0.68925 -2.89485,0.13785 -16.12841,0.62032 z m 32.11896,-52.31392 q 2.75699,0.41354 6.47893,0.41354 10.33872,0 15.64593,-3.79086 5.30721,-3.85979 5.30721,-13.23356 0,-6.61678 -5.03151,-11.02797 -5.03151,-4.41119 -15.16345,-4.41119 -2.89485,0 -7.71958,0.75817 0,1.58527 0.13785,4.54904 0.34462,5.85861 0.34462,16.4041 l -0.0689,5.78969 q 0,1.51634 0.0689,4.54904 z m 0.8271,43.9051 q 4.48011,1.86097 8.3399,1.86097 7.85743,0 12.82002,-2.34345 4.96258,-2.41236 7.2371,-6.6857 2.27452,-4.27334 2.27452,-10.68335 0,-6.61678 -2.48129,-10.61442 -3.44625,-5.51398 -8.33991,-7.37495 -4.89366,-1.9299 -14.68098,-1.9299 -4.34226,0 -5.99646,0.62033 v 8.47775 l -0.0689,10.20087 0.20677,15.8527 q 0.0689,1.1028 0.68925,2.61915 z"
         id="path11"
         inkscape:label="B" />
      <path
         d="m 487.24681,443.59385 0.13785,-4.68689 q 1.30957,-0.41354 4.61796,-1.03387 5.30721,-1.03387 6.41001,-1.86097 1.17172,-0.8271 2.82592,-3.99764 l 13.92281,-36.46122 16.33518,-42.87123 q 2.27452,0.0689 4.34226,0.0689 h 3.10162 l 0.62032,1.24064 11.99292,28.39702 q 4.06656,9.02915 7.30603,17.57583 3.23946,8.47775 5.58291,13.85388 1.37849,3.23947 3.79086,9.7184 1.24065,3.51517 3.79086,8.82238 1.3785,2.89484 2.06775,3.37731 1.24065,1.03387 3.99764,1.3785 2.82591,0.34462 6.06538,1.58527 0.34462,2.27452 0.34462,3.37732 0,0.48247 -0.0689,1.51634 -5.10044,0 -11.23474,-0.48247 -6.13431,-0.48248 -11.02797,-0.48248 -5.44506,0 -7.85743,0.13785 l -11.71722,0.62033 -3.37731,0.13785 q 0,-2.41237 0.20677,-4.61797 l 7.65065,-1.65419 q 3.44625,-0.89602 3.99764,-1.3785 0.68925,-0.68925 0.68925,-1.58527 0,-0.89602 -0.34462,-1.86097 l -2.75699,-6.75463 -5.44506,-13.50926 -26.32928,-0.0689 q -1.44742,3.30839 -5.99646,16.19733 -1.30957,3.65302 -1.30957,4.96259 0,1.79204 0.96495,2.55022 1.58527,1.30957 6.06538,1.86097 0.62032,0.13785 4.89366,0.75817 0.0689,2.48129 0.0689,3.44624 0,0.75817 -0.13785,1.58527 -4.27334,0 -20.40175,-1.17172 l -2.82591,0.48247 q -5.10044,0.8271 -9.7184,0.8271 z m 32.39466,-38.73574 q 16.12841,0.20677 19.02325,0.20677 l 1.72312,-0.0689 q -2.06775,-6.13431 -5.37614,-14.26744 -3.30839,-8.20205 -5.37613,-12.47539 z"
         id="path12"
         inkscape:label="A3" />
      <path
         style="letter-spacing:-11.8787px"
         d="m 586.70532,444.21417 0.13785,-5.51398 q 1.65419,-0.41355 3.99764,-0.75817 4.48011,-0.62033 7.30602,-1.79205 0.96495,-1.58527 1.24065,-3.03269 0.5514,-3.85979 0.5514,-11.37259 l -0.13785,-29.29305 q 0,-4.54903 -0.48247,-23.77905 -0.13785,-5.16936 -0.68925,-6.41001 -0.20678,-0.41355 -0.68925,-0.68925 -1.1028,-0.75817 -4.13549,-0.89602 -1.30957,-0.0689 -6.75463,-0.75817 l -0.20677,-4.89367 15.43915,-0.34462 22.53842,-0.75817 2.68806,-0.0689 q 0.8271,-0.0689 1.6542,-0.0689 0.68925,0 3.65301,0.0689 h 4.41119 q 5.23829,-0.0689 11.37259,1.58527 2.13667,0.5514 5.65184,2.34345 3.51516,1.72312 6.06538,4.48011 2.61914,2.68807 3.85979,6.06538 1.24065,3.37732 1.24065,7.16818 0,4.20441 -1.86097,7.58173 -1.86097,3.30839 -5.65184,6.13431 -1.92989,1.37849 -8.8913,4.54904 10.40765,2.34344 15.85271,8.6156 5.44506,6.20323 5.44506,13.85388 0,4.54904 -1.72312,9.51163 -1.24065,3.72194 -4.20442,6.89248 -3.92871,4.20441 -8.3399,6.34108 -4.34226,2.13667 -12.06184,3.51516 -3.85979,0.68925 -11.71722,0.68925 l -11.71721,-0.2757 q -7.44388,0 -17.71368,0.68925 -2.89484,0.13785 -16.1284,0.62032 z m 32.11896,-52.31392 q 2.75699,0.41354 6.47893,0.41354 10.33872,0 15.64593,-3.79086 5.30721,-3.85979 5.30721,-13.23356 0,-6.61678 -5.03151,-11.02797 -5.03151,-4.41119 -15.16346,-4.41119 -2.89484,0 -7.71958,0.75817 0,1.58527 0.13785,4.54904 0.34463,5.85861 0.34463,16.4041 l -0.0689,5.78969 q 0,1.51634 0.0689,4.54904 z m 0.82709,43.9051 q 4.48012,1.86097 8.33991,1.86097 7.85742,0 12.82001,-2.34345 4.96259,-2.41236 7.23711,-6.6857 2.27451,-4.27334 2.27451,-10.68335 0,-6.61678 -2.48129,-10.61442 -3.44624,-5.51398 -8.3399,-7.37495 -4.89366,-1.9299 -14.68098,-1.9299 -4.34227,0 -5.99646,0.62033 v 8.47775 l -0.0689,10.20087 0.20678,15.8527 q 0.0689,1.1028 0.68924,2.61915 z"
         id="path13"
         inkscape:label="B2" />
      <path
         d="m 662.98141,354.88762 q 1.86097,-0.55139 8.6156,-0.55139 l 0.68925,0.13785 q 1.72312,0.27569 2.41237,0.27569 l 0.68924,-0.0689 q 1.03388,0.13785 5.65184,0.48247 8.54667,0.62033 13.57818,0.62033 5.51399,0 10.8212,-0.75818 0.75817,-0.13785 1.1028,-0.13785 l 0.55139,0.0689 q 0.34463,0.89602 0.34463,1.3785 l -0.0689,3.58409 q -1.58527,0.62032 -3.79086,0.96494 l -3.10162,0.5514 q -1.72312,0.34462 -4.61796,0.75817 l -0.41355,0.2757 -0.13785,0.89603 q 2.27452,4.89366 9.64948,15.23238 1.92989,3.30839 3.85979,6.20323 0.55139,0.75817 3.92871,6.41001 0.34462,0.62032 0.75817,1.24064 0.62033,0.96495 1.24065,1.86097 1.17172,1.72312 1.51634,2.27452 1.3785,2.2056 2.34345,3.37732 l 7.16818,-10.06302 q 3.51516,-4.54904 9.167,-13.23357 l 0.2757,-0.34462 5.8586,-10.40765 q 1.3785,-1.99882 1.3785,-2.96376 0,-0.34463 -0.20677,-1.17173 -1.03388,-0.68924 -1.72312,-0.82709 -0.2757,-0.13785 -2.89485,-0.2757 -1.44742,-0.2757 -2.75699,-0.48248 -1.30957,-0.20677 -2.13667,-0.41354 -0.13785,-0.89603 -0.41355,-5.10044 l 14.12959,0.75817 q 0.62032,0.0689 1.72312,0.2757 h 3.30839 l 1.17172,-0.0689 q 2.2056,-0.34463 5.72076,-0.5514 1.03387,-0.0689 1.99882,-0.20678 l -0.0689,5.16936 -0.89603,0.2757 q -5.78968,0.96495 -7.92635,2.55022 -3.10162,2.34345 -8.3399,11.30367 l -8.96023,13.44034 q -8.0642,10.95904 -10.40764,14.95668 -0.62033,0.96495 -1.03387,2.41237 v 2.13667 l -0.0689,5.99646 v 1.65419 q -0.20677,1.79205 -0.20677,3.72194 l 0.2757,17.64475 q 0.2757,0.5514 0.75817,0.75817 0.96495,0.2757 4.41119,0.68925 6.61678,0.68925 7.37495,1.17172 0.5514,0.34463 0.5514,1.3785 0,0.62032 -0.13785,1.6542 0,0.62032 -0.0689,1.92989 l -7.92636,-0.13785 -7.37495,-0.62032 -5.10044,-0.34463 -7.65065,0.2757 H 701.855 q -0.96495,-0.0689 -3.10162,0.2757 -3.44624,0.5514 -5.16936,0.5514 l -4.75581,-0.0689 q -0.0689,-1.44743 -0.0689,-2.2056 0,-0.75817 0.0689,-2.27452 l 12.68217,-2.61914 q 0.82709,-0.2757 1.58527,-0.68925 0.0689,-3.17054 0.0689,-3.92871 0,-10.5455 -0.13785,-14.33636 -0.13785,-3.85979 -0.13785,-4.48011 v -1.58527 q 0,-4.34227 -4.54904,-9.9941 -1.92989,-2.41237 -2.41236,-3.17054 l -13.50927,-20.5396 -6.34108,-10.20087 q -0.34462,-0.55139 -4.27334,-5.65183 -1.24064,-1.1028 -2.41236,-1.51635 -0.68925,-0.2757 -6.27216,-1.44742 -0.34463,-0.62032 -0.34463,-1.10279 0,-0.41355 0.0689,-1.03388 0.0689,-0.68924 0.13785,-1.99882 z"
         id="path14"
         inkscape:label="Y" />
      <path
         style="letter-spacing:-5.54188px"
         d="m 761.19927,437.94202 q 2.13667,-0.62033 5.99645,-1.17173 3.92872,-0.62032 4.61797,-0.62032 2.68806,-0.0689 3.58409,-0.89602 0.41355,-1.6542 0.41355,-2.75699 l -0.13785,-8.82238 0.41354,-8.96022 v -5.72076 l 0.0689,-6.75463 -0.13785,-7.16818 0.2757,-15.37024 0.0689,-6.9614 v -0.96495 q -0.48247,-7.2371 -0.96494,-7.92635 -0.41355,-0.75817 -3.92872,-1.86097 -0.34462,-0.13785 -2.61914,-1.03387 -1.72312,-0.68925 -3.10162,-0.96495 -2.41236,-0.62032 -3.37731,-1.44742 -0.13785,-1.79205 -0.13785,-2.75699 0,-0.5514 0.0689,-1.6542 0.62033,-0.34462 1.30957,-0.34462 1.6542,0 11.99292,0.5514 l 9.85625,-0.0689 7.30603,0.13785 q 4.75581,0 12.19969,-0.62032 2.20559,-0.20678 2.55022,-0.20678 1.03387,0 1.44742,0.5514 0.5514,0.75817 0.5514,2.75699 0,1.58527 -0.75818,2.41237 -0.41355,0.48248 -3.03269,0.8271 l -8.54667,1.99882 q -0.34463,0.13785 -1.17173,0.5514 -0.2757,0.48247 -0.41354,0.8271 l -0.0689,1.92989 -0.20677,4.34226 v 1.24065 l 0.0689,0.75817 q 0,0.34463 -0.20677,3.79087 -0.0689,0.89602 -0.0689,1.79204 0,1.1028 0.13785,3.72194 0.20678,4.13549 0.20678,7.23711 0,3.58409 -0.20678,8.20205 -0.0689,1.72312 -0.0689,4.48011 l -0.2757,32.67036 q 0,2.06774 0.68925,2.68807 l 6.54785,0.2757 4.06657,-0.0689 4.34226,0.13785 q 11.09689,0 17.43797,-2.55022 4.75582,-1.92989 6.20324,-3.85979 2.34344,-2.06774 3.79086,-4.48011 1.51635,-2.41237 3.37732,-7.99528 h 2.20559 q 1.6542,0 3.72194,0.2757 v 1.9299 q 0,4.96258 -1.24065,17.36905 -0.48247,4.96258 -0.96494,6.06538 -1.58527,0.2757 -1.99882,0.2757 h -2.55022 l -3.58409,0.0689 q -0.62032,0 -8.20205,-0.5514 -1.3785,-0.0689 -13.16464,-0.48248 -11.78614,-0.41355 -23.08981,-0.41355 l -14.06066,0.41355 q -8.13313,0.20678 -15.23238,0.75818 h -1.03388 q -0.41355,0 -1.30957,-0.0689 -0.13785,-0.75817 -0.13785,-1.30957 0,-2.89484 0.48248,-4.20441 z"
         id="path15"
         inkscape:label="L2" />
      <path
         style="letter-spacing:-16.1302px"
         d="m 848.36129,397.8967 q 0,-8.54667 3.30839,-17.16227 2.41237,-6.20324 6.75463,-11.3726 4.34227,-5.16936 10.89012,-9.167 6.54786,-4.06656 13.37142,-5.78968 6.82355,-1.79204 15.23238,-1.79204 14.33636,0 24.88185,5.37613 10.5455,5.37614 16.61088,14.54313 7.85743,11.924 7.85743,25.01971 0,19.50572 -13.30249,33.42853 -13.23356,13.92281 -36.87477,13.92281 -5.85861,0 -10.95904,-0.75817 -3.85979,-0.5514 -6.75464,-1.51635 -5.23828,-1.72312 -5.8586,-1.99882 -7.51281,-4.27333 -12.06185,-8.75345 -4.54903,-4.48011 -7.71957,-10.13194 -1.72312,-3.17054 -3.92872,-11.44152 -1.44742,-5.30721 -1.44742,-12.40647 z m 46.9378,-38.46004 q -5.99646,0 -10.61443,2.82592 -4.61796,2.75699 -6.9614,6.13431 -3.92871,5.72076 -5.58291,12.54431 -1.6542,6.75463 -1.6542,16.47303 0,5.92753 0.48248,8.47775 0.13785,0.8271 0.41355,2.82592 0.62032,5.10043 1.44742,7.44388 2.96376,8.75345 4.20441,10.82119 2.06775,3.51517 6.13431,6.96141 2.06774,1.79204 5.99646,3.30839 3.92871,1.44742 7.85743,1.44742 7.44387,0 13.78496,-3.44624 6.41,-3.51517 10.26979,-11.85507 3.85979,-8.3399 3.85979,-21.71131 0,-5.51399 -0.75817,-14.95668 l -0.34462,-1.30958 q -0.20678,-0.55139 -0.68925,-2.82591 -2.55022,-11.30367 -9.78733,-17.23121 -7.16818,-5.92753 -18.05829,-5.92753 z"
         id="path16"
         inkscape:label="O" />
      <path
         d="m 938.51309,359.85021 -0.27569,-4.82474 h 5.8586 l 1.99882,-0.0689 q 4.13549,-0.20678 5.72076,-0.20678 0.8271,0 4.82474,0.13785 0.89602,0.0689 1.51634,0.0689 0.62033,0 4.34227,-0.13785 3.72194,-0.13785 4.20441,-0.13785 0.75817,0 2.13667,0.0689 10.61442,9.64948 17.30013,16.61088 6.6857,6.96141 48.79876,48.72984 v -1.72312 l -0.2757,-7.99528 q -0.2068,-7.03033 -0.5514,-11.09689 -0.3446,-4.13549 -0.4135,-9.78732 -0.069,-5.72076 -0.4825,-10.33872 -0.8271,-9.02915 -0.8271,-10.40765 -0.069,-4.48011 -0.965,-5.44506 -1.4474,-1.51635 -6.6167,-2.27452 -3.7909,-0.62032 -5.6519,-1.58527 l 0.069,-4.06656 1.7921,-0.20678 13.5782,-0.41355 15.1634,-0.41354 q 1.5164,-0.0689 2.8949,-0.0689 l 0.069,4.48011 q -1.5853,0.8271 -3.2395,1.24065 -4.4112,1.03387 -5.1004,1.44742 -3.5152,1.99882 -3.7909,2.41237 -0.6203,0.8271 -0.6203,2.55022 0,0.41355 0.1379,2.89484 0.069,1.24065 0.069,5.78968 0.069,9.9941 0.5514,15.78378 0.1378,1.86097 0.2068,4.20442 l 0.7581,24.1926 q 0.069,2.55022 0.069,3.58409 v 8.47776 l 0.2067,3.58409 -0.2067,3.72193 q 0.2757,2.82592 0.2757,3.37732 v 3.65302 l -7.9264,0.27569 -8.2021,-8.47775 -16.7487,-16.61088 -11.7172,-11.71721 -8.6156,-8.82238 q -8.40882,-8.27097 -15.3013,-14.54313 l -11.23475,-10.13195 0.62033,25.64003 q 0.0689,2.34344 0.0689,4.82474 l -0.0689,4.89366 0.41355,9.02915 q 0.20677,5.65183 0.75817,12.26861 0.13785,1.79205 0.34462,2.55022 0.20678,0.68925 0.8271,2.06774 2.68807,0.96495 11.71722,1.44743 0.62032,0.13785 1.79204,0.48247 l 0.2757,5.58291 -2.68807,0.0689 q -2.20559,0 -13.92281,-1.03387 -10.95904,0.13785 -14.61206,0.41355 -3.65301,0.2757 -3.99764,0.2757 -0.82709,0 -2.27451,-0.2757 -0.13785,-1.58527 -0.13785,-2.75699 0,-0.75818 0.0689,-2.4813 1.9299,-0.34462 3.17054,-0.34462 0.41355,0 2.68807,0.13785 5.78968,0 6.82356,-0.8271 1.10279,-0.89602 1.24064,-4.68688 0.48248,-10.95905 0.48248,-13.37142 v -3.79086 l 0.13785,-22.40056 -0.20678,-13.99174 q -0.0689,-7.99528 -1.03387,-11.09689 -0.41355,-1.58527 -1.58527,-2.757 -2.41237,-2.48129 -5.37614,-3.72194 -1.79204,-0.75817 -9.30485,-1.92989 z"
         id="path17"
         inkscape:label="N" />
    </g>
  </g>
  <metadata
     id="metadata1">
    <rdf:RDF>
      <cc:Work
         rdf:about="">
        <dc:title>PRÆDIVM</dc:title>
      </cc:Work>
    </rdf:RDF>
  </metadata>
</svg>
