<?xml version="1.0" encoding="UTF-8" standalone="no"?>
<!-- Created with Inkscape (http://www.inkscape.org/) -->

<svg
   width="48"
   height="48"
   viewBox="0 0 48 48"
   version="1.1"
   id="svg1"
   xmlns="http://www.w3.org/2000/svg"
   xmlns:svg="http://www.w3.org/2000/svg">
  <defs
     id="defs1" />
  <g
     id="layer1">
    <circle
       style="fill:#ffffff"
       id="path1"
       cx="24.08922"
       cy="24.059479"
       r="24" />
    <path
       d="m 7.7144791,29.695671 c -1.2649243,0.843282 -0.843283,2.445521 1.855219,3.204477 2.7828279,0.927609 5.8186439,1.18059 8.7701249,0.674621 0.168654,0 0.337307,-0.08433 0.421634,-0.08433 v -2.867163 l -2.867162,0.92761 c -1.096263,0.337307 -2.192533,0.421634 -3.288796,0.168653 -0.843283,-0.25298 -0.674629,-0.758956 0.337307,-1.18059 L 18.76145,28.51507 v -3.120143 l -8.095504,2.782828 C 9.6540091,28.515062 8.6420661,29.021038 7.7144561,29.695667 Z M 27.27861,17.046446 v 8.179831 c 3.457458,1.686566 6.155959,0 6.155959,-4.385067 0,-4.469393 -1.602238,-6.493265 -6.240285,-8.095497 -2.445522,-0.843282 -4.975362,-1.602238 -7.50521,-2.108206 v 24.37084 l 5.902971,1.770892 V 16.28749 c 0,-0.927602 0,-1.602238 0.674629,-1.349251 0.92761,0.252981 1.011936,1.180598 1.011936,2.108207 z m 10.96266,10.709679 c -2.445514,-0.843282 -5.059689,-1.180597 -7.589536,-0.927609 -1.349244,0.08433 -2.614168,0.421634 -3.794765,0.843282 l -0.25298,0.08433 v 3.288797 l 5.481329,-2.02388 c 1.096263,-0.3373 2.192534,-0.421627 3.288804,-0.168654 0.843275,0.25298 0.674622,0.758956 -0.337307,1.180597 l -8.432811,3.120143 v 3.20447 l 11.637281,-4.300736 c 0.843282,-0.337307 1.602238,-0.758956 2.27686,-1.433585 0.590287,-0.843282 0.337307,-2.023872 -2.27686,-2.867155 z"
       fill="currentColor"
       id="path1-8"
       style="stroke-width:0.843283" />
  </g>
</svg>
